SplineFontDB: 3.0
FontName: AnkaCoder-C75-Skel
FullName: Anna Shugol/Coder Narrow Regular
FamilyName: Anka/Coder Narrow
Weight: Book
Copyright: Copyright (c) 2010, Andrey Makarov (makarov@bmstu.ru, mka-at-mailru@mail.ru),\nwith Reserved Font Name Anka/Coder Narrow.\n---------------------------------\nThe Anka/* are members of Anna Shugol name font family; March 2010
Version: 001.000
StrokeWidth: 100
ItalicAngle: 0
UnderlinePosition: -292
UnderlineWidth: 50
Ascent: 1638
Descent: 410
LayerCount: 2
Layer: 0 0 "Back"  1
Layer: 1 0 "Fore"  0
StrokedFont: 1
NeedsXUIDChange: 1
XUID: [1021 77 1780377344 13140478]
UseXUID: 1
BaseHoriz: 0
FSType: 8
OS2Version: 1
OS2_WeightWidthSlopeOnly: 0
OS2_UseTypoMetrics: 1
CreationTime: 1260467214
ModificationTime: 1268390100
PfmFamily: 49
TTFWeight: 400
TTFWidth: 3
LineGap: 0
VLineGap: 0
Panose: 2 11 5 9 2 5 2 2 2 4
OS2TypoAscent: 0
OS2TypoAOffset: 1
OS2TypoDescent: 0
OS2TypoDOffset: 1
OS2TypoLinegap: 0
OS2WinAscent: 0
OS2WinAOffset: 1
OS2WinDescent: 0
OS2WinDOffset: 1
HheadAscent: 0
HheadAOffset: 1
HheadDescent: 0
HheadDOffset: 1
OS2SubXSize: 553
OS2SubYSize: 1229
OS2SubXOff: 0
OS2SubYOff: 283
OS2SupXSize: 553
OS2SupYSize: 1229
OS2SupXOff: 0
OS2SupYOff: 977
OS2StrikeYSize: 102
OS2StrikeYPos: 530
OS2FamilyClass: 1285
OS2Vendor: 'AVM1'
OS2CodePages: 40000097.cfd60000
OS2UnicodeRanges: 800002ef.000079eb.00000000.00000000
MacStyle: 0
DEI: 91125
ShortTable: maxp 16
  0
  0
  0
  0
  0
  0
  0
  2
  1
  0
  9
  0
  256
  0
  0
  0
EndShort
TtTable: prep
PUSHW_1
 511
SCANCTRL
SVTCA[y-axis]
MPPEM
PUSHB_1
 8
LT
IF
PUSHB_2
 1
 1
INSTCTRL
EIF
PUSHB_2
 70
 6
CALL
IF
POP
PUSHB_1
 16
EIF
MPPEM
PUSHB_1
 20
GT
IF
POP
PUSHB_1
 128
EIF
SCVTCI
PUSHB_1
 6
CALL
NOT
IF
EIF
EndTTInstrs
TtTable: fpgm
PUSHB_1
 0
FDEF
PUSHB_1
 0
SZP0
MPPEM
PUSHB_1
 42
LT
IF
PUSHB_1
 74
SROUND
EIF
PUSHB_1
 0
SWAP
MIAP[rnd]
RTG
PUSHB_1
 6
CALL
IF
RTDG
EIF
MPPEM
PUSHB_1
 42
LT
IF
RDTG
EIF
DUP
MDRP[rp0,rnd,grey]
PUSHB_1
 1
SZP0
MDAP[no-rnd]
RTG
ENDF
PUSHB_1
 1
FDEF
DUP
DUP

StartChar: exclam
Encoding: 33 33 1
Width: 922
VWidth: 1708
GlyphClass: 2
Flags: W
HStem: -23 236<363.831 557.094> 1398 20G<428.5 489>
VStem: 336 249<6.3129 184.037 1384.21 1392.37> 371 182<384 808.823>
LayerCount: 2
Fore
SplineSet
585 95 m 0xe0
 585 26 526 -23 460 -23 c 0
 396 -23 336 27 336 95 c 0
 336 157 390 213 460 213 c 0
 525 213 585 165 585 95 c 0xe0
457 1418 m 0
 521 1418 583 1387 583 1290 c 1
 553 384 l 1
 371 384 l 1xd0
 341 1291 l 1
 341 1387 400 1418 457 1418 c 0
EndSplineSet
Validated: 3073
EndChar

StartChar: quotedbl
Encoding: 34 34 2
Width: 922
VWidth: 1708
GlyphClass: 2
Flags: W
LayerCount: 2
Fore
SplineSet
230 1069 m 2
 215 1044 192 1032 172 1032 c 3
 145 1032 122 1053 122 1089 c 3
 122 1096 122 1105 124 1113 c 2
 186 1358 l 2
 196 1398 242 1426 284 1426 c 3
 339 1426 370 1377 370 1331 c 3
 370 1315 366 1299 358 1286 c 2
 230 1069 l 2
660 1069 m 2
 645 1044 624 1032 604 1032 c 3
 577 1032 552 1053 552 1089 c 3
 552 1096 554 1105 556 1113 c 2
 616 1358 l 2
 626 1398 672 1426 714 1426 c 3
 769 1426 800 1377 800 1331 c 3
 800 1315 796 1299 788 1286 c 2
 660 1069 l 2
EndSplineSet
EndChar

StartChar: numbersign
Encoding: 35 35 3
Width: 922
VWidth: 1708
GlyphClass: 2
Flags: W
LayerCount: 2
Back
SplineSet
-24 0 m 5
 154 1350 l 5
 946 1350 l 5
 768 0 l 5
 -24 0 l 5
EndSplineSet
Fore
SplineSet
0 973 m 25
 922 973 l 25
0 416 m 25
 922 416 l 25
745 1425 m 25
 543 -99 l 25
375 1425 m 25
 173 -99 l 25
EndSplineSet
EndChar

StartChar: dollar
Encoding: 36 36 4
Width: 922
VWidth: 2334
GlyphClass: 2
Flags: W
LayerCount: 2
Fore
SplineSet
461 1494 m 25
 461 -93 l 25
139 325 m 0
 139 139 294 50 452 50 c 10
 470 50 l 18
 624 50 760 183 760 337 c 10
 760 367 l 18
 760 503 707 628 583 696 c 6
 320 830 l 6
 238 872 188 957 188 1033 c 2
 188 1063 l 2
 188 1250 303 1350 458 1350 c 10
 465 1350 l 18
 598 1350 709 1304 744 1177 c 0
 756 1136 756 1093 756 1063 c 0
EndSplineSet
EndChar

StartChar: percent
Encoding: 37 37 5
Width: 922
VWidth: 1708
GlyphClass: 2
Flags: W
HStem: 64 375<562.148 779.098> 957 376<144.148 358.241>
VStem: 92 320<1011.39 1280.06> 510 320<118.028 386.537>
LayerCount: 2
Fore
SplineSet
90 76 m 29
 832 1325 l 29
252 1333 m 7
 358 1333 412 1246 412 1145 c 7
 412 1048 358 957 252 957 c 7
 148 957 92 1044 92 1145 c 7
 92 1248 149 1333 252 1333 c 7
670 439 m 7
 776 439 830 353 830 252 c 7
 830 154 776 64 670 64 c 7
 566 64 510 151 510 252 c 7
 510 355 567 439 670 439 c 7
EndSplineSet
EndChar

StartChar: ampersand
Encoding: 38 38 6
Width: 922
VWidth: 2334
GlyphClass: 2
Flags: W
LayerCount: 2
Fore
SplineSet
820 10 m 5
 397 811 l 6
 344 897 269 1036 269 1140 c 6
 269 1162 l 6
 269 1278 336 1350 452 1350 c 14
 471 1350 l 22
 592 1350 666 1271 666 1157 c 6
 666 1098 l 6
 666 1049 605 973 568 939 c 6
 264 639 l 5
 190 544 139 471 139 367 c 14
 139 337 l 22
 139 151 275 50 429 50 c 14
 447 50 l 22
 573 50 660 121 707 240 c 6
 832 590 l 4
EndSplineSet
EndChar

StartChar: quotesingle
Encoding: 39 39 7
Width: 922
VWidth: 1708
GlyphClass: 2
Flags: W
LayerCount: 2
Fore
SplineSet
445 1069 m 2
 430 1044 408 1032 388 1032 c 3
 361 1032 337 1053 337 1089 c 3
 337 1096 338 1105 340 1113 c 2
 401 1358 l 2
 411 1398 457 1426 499 1426 c 3
 554 1426 585 1377 585 1331 c 3
 585 1315 581 1299 573 1286 c 2
 445 1069 l 2
EndSplineSet
EndChar

StartChar: parenleft
Encoding: 40 40 8
Width: 922
VWidth: 1708
GlyphClass: 2
Flags: W
LayerCount: 2
Fore
SplineSet
740 1480 m 21
 537 1352 350 1055 350 722 c 31
 350 375 538 81 740 -80 c 13
EndSplineSet
EndChar

StartChar: parenright
Encoding: 41 41 9
Width: 922
VWidth: 1708
GlyphClass: 2
Flags: W
LayerCount: 2
Fore
SplineSet
182 1480 m 21
 385 1352 572 1055 572 722 c 31
 572 375 385 81 182 -80 c 13
EndSplineSet
EndChar

StartChar: asterisk
Encoding: 42 42 10
Width: 922
VWidth: 1708
GlyphClass: 2
Flags: W
LayerCount: 2
Fore
SplineSet
246.459 304.709 m 29
 461 600 l 29
 461 965 l 29
461 600 m 29
 675.541 304.709 l 29
808.135 712.791 m 29
 461 600 l 29
 113.865 712.791 l 29
EndSplineSet
EndChar

StartChar: plus
Encoding: 43 43 11
Width: 922
VWidth: 1708
GlyphClass: 2
Flags: W
LayerCount: 2
Fore
SplineSet
461 157 m 29
 461 1011 l 29
50 600 m 29
 872 600 l 29
EndSplineSet
EndChar

StartChar: comma
Encoding: 44 44 12
Width: 922
VWidth: 1947
GlyphClass: 2
Flags: W
HStem: -315 55<305.09 339.966>
VStem: 363.375 194.25<7.63447 110.805>
LayerCount: 2
Fore
SplineSet
558 29 m 21
 557 -103 539 -289 309 -315 c 13
 294 -260 l 21
 363 -235 505 -138 402 -49 c 13
 558 29 l 21
557.625 29 m 4
 557.625 -22.75 517.875 -68.5 460.125 -68.5 c 4
 404.625 -68.5 363.375 -23.5 363.375 29 c 4
 363.375 80 401.625 126.5 460.125 126.5 c 4
 517.125 126.5 557.625 81.5 557.625 29 c 4
EndSplineSet
EndChar

StartChar: hyphen
Encoding: 45 45 13
Width: 922
VWidth: 1708
GlyphClass: 2
Flags: W
LayerCount: 2
Fore
SplineSet
50 600 m 29
 872 600 l 29
EndSplineSet
EndChar

StartChar: period
Encoding: 46 46 14
Width: 922
VWidth: 1708
GlyphClass: 2
Flags: W
HStem: -68 194<378.398 542.285>
VStem: 363 195<-52.3284 110.08>
LayerCount: 2
Fore
SplineSet
558 29 m 0
 558 -23 518 -68 460 -68 c 0
 405 -68 363 -24 363 29 c 0
 363 80 402 126 460 126 c 0
 517 126 558 82 558 29 c 0
EndSplineSet
EndChar

StartChar: slash
Encoding: 47 47 15
Width: 922
VWidth: 1708
GlyphClass: 2
Flags: W
LayerCount: 2
Fore
SplineSet
182 -25 m 29
 740 1425 l 29
EndSplineSet
EndChar

StartChar: zero
Encoding: 48 48 16
Width: 922
VWidth: 1708
GlyphClass: 2
Flags: W
HStem: 35 1330<335.267 593.051>
VStem: 172 578<297.427 1135.89>
LayerCount: 2
Back
SplineSet
0 1476 m 5
 831 1476 l 5
 922 1218 l 5
 922 -51 l 5
 94 -51 l 5
 0 187 l 5
 0 1476 l 5
EndSplineSet
Fore
SplineSet
-21 -25 m 25
 942 1425 l 25
461 1350 m 3
 708 1350 750 1057 750 732 c 3
 750 337 703 50 461 50 c 3
 212 50 172 416 172 732 c 3
 172 1057 216 1350 461 1350 c 3
EndSplineSet
EndChar

StartChar: one
Encoding: 49 49 17
Width: 922
VWidth: 1708
GlyphClass: 2
Flags: W
LayerCount: 2
Back
SplineSet
0 335 m 5
 316 767 l 5
 316 938 l 5
 237 1024 l 5
 528 1425 l 5
 922 1425 l 5
 922 -25 l 5
 0 -25 l 5
 0 335 l 5
EndSplineSet
Fore
SplineSet
560 0 m 25
 560 1350 l 25
 148 983 l 25
EndSplineSet
EndChar

StartChar: two
Encoding: 50 50 18
Width: 922
VWidth: 2334
GlyphClass: 2
Flags: W
LayerCount: 2
Back
SplineSet
140 -25 m 5
 140 525 l 5
 90 546 l 5
 90 1479 l 5
 922 1479 l 5
 922 -25 l 5
 140 -25 l 5
EndSplineSet
Fore
SplineSet
193 1181 m 1
 239 1290 298 1350 452 1350 c 10
 470 1350 l 18
 650 1350 740 1242 740 1064 c 10
 740 1024 l 18
 740 998 706 929 649 854 c 2
 318 384 l 2
 253 267 212 180 182 75 c 1
 832 75 l 9
EndSplineSet
EndChar

StartChar: three
Encoding: 51 51 19
Width: 922
VWidth: 2334
GlyphClass: 2
Flags: W
LayerCount: 2
Fore
SplineSet
200 1190 m 1
 240 1296 346 1350 452 1350 c 10
 470 1350 l 18
 612 1350 695 1218 695 1063 c 10
 695 1022 l 18
 695 944 605 809 471 809 c 1
 302 809 l 9
 470 809 l 18
 650 809 740 641 740 417 c 10
 740 397 l 18
 740 145 650 50 470 50 c 10
 452 50 l 18
 330 50 182 124 182 305 c 1
EndSplineSet
EndChar

StartChar: four
Encoding: 52 52 20
Width: 922
VWidth: 1708
GlyphClass: 2
Flags: W
LayerCount: 2
Back
SplineSet
90 1425 m 5
 832 1425 l 5
 832 0 l 5
 90 0 l 5
 90 1425 l 5
EndSplineSet
Fore
SplineSet
672 0 m 25
 672 1352 l 25
 165 427 l 25
 830 427 l 25
EndSplineSet
EndChar

StartChar: five
Encoding: 53 53 21
Width: 922
VWidth: 2334
GlyphClass: 2
Flags: W
LayerCount: 2
Back
SplineSet
0 1425 m 5
 922 1425 l 5
 922 -54 l 5
 0 -54 l 5
 0 141 l 5
 370 393 l 5
 370 556 l 5
 0 845 l 5
 0 1425 l 5
EndSplineSet
Fore
SplineSet
774 1325 m 1
 272 1325 l 1
 182 495 l 1
 182 731 341 879 452 879 c 10
 470 879 l 18
 650 879 740 711 740 487 c 10
 740 427 l 18
 740 169 650 50 470 50 c 10
 402 50 l 18
 288 50 132 156 132 337 c 1
EndSplineSet
EndChar

StartChar: six
Encoding: 54 54 22
Width: 922
VWidth: 2334
GlyphClass: 2
Flags: W
VStem: 182 558<197.352 427 487 723.531>
LayerCount: 2
Fore
SplineSet
182 432 m 29
 182 974 l 21
 183 1169 272 1350 452 1350 c 14
 470 1350 l 22
 597 1350 679 1321 717 1232 c 5
182 487 m 14
 182 427 l 22
 182 169 302 50 452 50 c 14
 470 50 l 22
 650 50 740 201 740 427 c 14
 740 487 l 22
 740 743 650 879 470 879 c 14
 452 879 l 22
 272 879 182 711 182 487 c 14
EndSplineSet
EndChar

StartChar: seven
Encoding: 55 55 23
Width: 922
VWidth: 1708
GlyphClass: 2
Flags: W
LayerCount: 2
Back
SplineSet
0 1485 m 5
 832 1485 l 5
 832 0 l 5
 0 0 l 5
 0 1485 l 5
EndSplineSet
Fore
SplineSet
90 1325 m 25
 740 1325 l 17
 526 862 342 427 258 -45 c 9
EndSplineSet
EndChar

StartChar: eight
Encoding: 56 56 24
Width: 922
VWidth: 2334
GlyphClass: 2
Flags: W
VStem: 182 558<171.317 365 417 653.531> 227 468<910.484 1024 1095 1262.61>
LayerCount: 2
Fore
SplineSet
470 1350 m 14x40
 452 1350 l 22
 317 1350 227 1253 227 1096 c 6
 227 1024 l 6
 227 944 317 809 451 809 c 14
 471 809 l 22
 605 809 695 912 695 1023 c 14
 695 1095 l 22
 695 1282 605 1350 470 1350 c 14x40
182 417 m 14x80
 182 365 l 22
 182 147 302 50 452 50 c 14
 470 50 l 22
 650 50 740 145 740 365 c 14
 740 417 l 22
 740 673 650 809 470 809 c 14
 452 809 l 22
 272 809 182 641 182 417 c 14x80
EndSplineSet
EndChar

StartChar: nine
Encoding: 57 57 25
Width: 922
VWidth: 2334
GlyphClass: 2
Flags: W
HStem: 1345 20G<362 544>
VStem: 182 558<716.643 1210.49>
LayerCount: 2
Fore
SplineSet
740 957 m 29
 740 411 l 21
 740 169 650 50 470 50 c 14
 452 50 l 22
 326 50 243 80 206 168 c 5
740 930 m 22
 740 674 650 553 470 553 c 14
 452 553 l 22
 272 585 182 706 182 930 c 14
 182 1005 l 22
 182 1248 272 1350 452 1350 c 14
 470 1350 l 22
 618 1350 740 1231 740 1005 c 14
 740 930 l 22
EndSplineSet
EndChar

StartChar: less
Encoding: 60 60 28
Width: 922
VWidth: 1708
GlyphClass: 2
Flags: W
LayerCount: 2
Back
SplineSet
90 1364 m 5
 832 1364 l 5
 832 -110 l 5
 90 -110 l 5
 90 1364 l 5
EndSplineSet
Fore
SplineSet
902 1192 m 25
 182 600 l 25
 902 8 l 25
EndSplineSet
EndChar

StartChar: equal
Encoding: 61 61 29
Width: 922
VWidth: 1708
GlyphClass: 2
Flags: W
LayerCount: 2
Fore
SplineSet
50 842 m 29
 872 842 l 29
50 400 m 29
 872 400 l 29
EndSplineSet
EndChar

StartChar: greater
Encoding: 62 62 30
Width: 922
VWidth: 1708
GlyphClass: 2
Flags: W
LayerCount: 2
Back
SplineSet
90 1364 m 5
 832 1364 l 5
 832 -110 l 5
 90 -110 l 5
 90 1364 l 5
EndSplineSet
Fore
SplineSet
20 8 m 25
 740 600 l 25
 20 1192 l 25
EndSplineSet
EndChar

StartChar: question
Encoding: 63 63 31
Width: 922
VWidth: 1708
GlyphClass: 2
Flags: W
HStem: -68.5 195<379.354 541.805>
VStem: 363.375 194.25<-52.619 110.805>
LayerCount: 2
Fore
SplineSet
558 29 m 0
 558 -22 518 -68 461 -68 c 0
 405 -68 364 -23 364 29 c 0
 364 80 402 127 461 127 c 0
 518 127 558 82 558 29 c 0
461 380 m 25
 461 480 l 18
 461 553 489 618 533 673 c 2
 663 835 l 2
 709 892 740 954 740 1024 c 10
 740 1095 l 18
 740 1242 650 1350 470 1350 c 10
 452 1350 l 18
 272 1350 183 1242 182 1095 c 9
EndSplineSet
EndChar

StartChar: at
Encoding: 64 64 32
Width: 922
VWidth: 1708
GlyphClass: 2
Flags: W
HStem: 435 565<507.768 711.732>
VStem: 438 342<514.122 935.833>
LayerCount: 2
Fore
SplineSet
611 1000 m 6
 611 1000 714 1001 780 1001 c 29
 780 639 l 6
 780 543 711 435 611 435 c 7
 480 435 438 573 438 734 c 7
 438 895 485 1000 611 1000 c 6
740 130 m 5
 666 55 549 50 461 50 c 7
 272 50 112 279 112 732 c 7
 112 1056 216 1350 461 1350 c 7
 657 1350 780 1242 780 1065 c 6
 780 340 l 21
EndSplineSet
EndChar

StartChar: B
Encoding: 66 66 33
Width: 922
VWidth: 1947
GlyphClass: 2
Flags: W
VStem: 182 558<159.229 337 485 684.687> 182 508<861.309 1025 1095 1262.08>
LayerCount: 2
Fore
SplineSet
740 337 m 10x80
 740 485 l 18x80
 740 696 650 787 470 787 c 10
 182 787 l 25
 420 787 l 2
 605 787 690 844 690 1025 c 2
 690 1095 l 2
 690 1278 609 1325 420 1325 c 2
 182 1325 l 1
 182 75 l 1x40
 470 75 l 2
 650 75 740 156 740 337 c 10x80
EndSplineSet
EndChar

StartChar: C
Encoding: 67 67 34
Width: 922
VWidth: 1947
GlyphClass: 2
Flags: W
LayerCount: 2
Fore
SplineSet
733 315 m 5
 695 154 620 50 487 50 c 6
 456 50 l 6
 229 50 172 380 172 696 c 6
 172 763 l 6
 172 1063 224 1350 455 1350 c 6
 487 1350 l 6
 635 1350 709 1245 743 1080 c 5
EndSplineSet
EndChar

StartChar: D
Encoding: 68 68 35
Width: 922
VWidth: 1947
GlyphClass: 2
Flags: W
HStem: 60 21G<182 574.198> 1320 20G<182 579.009>
VStem: 182 568<294.16 1142.7>
LayerCount: 2
Fore
SplineSet
461 1325 m 6
 698 1325 750 1082 750 775 c 6
 750 671 l 6
 750 362 688 75 461 75 c 6
 182 75 l 5
 182 1325 l 5
 461 1325 l 6
EndSplineSet
EndChar

StartChar: E
Encoding: 69 69 36
Width: 922
VWidth: 1708
GlyphClass: 2
Flags: W
LayerCount: 2
Fore
SplineSet
740 787 m 29
 182 787 l 29
832 1325 m 29
 182 1325 l 29
 182 76 l 29
 832 76 l 29
EndSplineSet
EndChar

StartChar: F
Encoding: 70 70 37
Width: 922
VWidth: 1708
GlyphClass: 2
Flags: W
LayerCount: 2
Fore
SplineSet
740 787 m 29
 182 787 l 29
832 1325 m 29
 182 1325 l 29
 182 76 l 29
EndSplineSet
EndChar

StartChar: G
Encoding: 71 71 38
Width: 922
VWidth: 1947
GlyphClass: 2
Flags: W
LayerCount: 2
Fore
SplineSet
743 1080 m 5
 709 1245 635 1350 487 1350 c 6
 455 1350 l 6
 224 1350 172 1063 172 763 c 6
 172 696 l 6
 172 380 229 50 456 50 c 6
 487 50 l 6
 620 50 711 152 740 257 c 5
 740 617 l 5
 504 617 l 29
EndSplineSet
EndChar

StartChar: H
Encoding: 72 72 39
Width: 922
VWidth: 1947
GlyphClass: 2
Flags: W
LayerCount: 2
Fore
SplineSet
182 732 m 29
 740 732 l 29
740 1400 m 29
 740 0 l 29
182 1400 m 29
 182 0 l 29
EndSplineSet
EndChar

StartChar: I
Encoding: 73 73 40
Width: 922
VWidth: 1947
GlyphClass: 2
Flags: W
LayerCount: 2
Fore
SplineSet
90 75 m 29
 832 75 l 29
461 92 m 21
90 1325 m 29
 832 1325 l 5
461 1326 m 5
 461 75 l 13
EndSplineSet
EndChar

StartChar: J
Encoding: 74 74 41
Width: 922
VWidth: 1947
GlyphClass: 2
Flags: W
LayerCount: 2
Fore
SplineSet
148 208 m 5
 175 92 254 50 362 50 c 14
 380 50 l 22
 515 50 605 157 605 337 c 14
 605 1325 l 29
318 1325 m 29
 852 1325 l 29
EndSplineSet
EndChar

StartChar: K
Encoding: 75 75 42
Width: 922
VWidth: 1947
GlyphClass: 2
Flags: W
VStem: 0 922<0 1400>
LayerCount: 2
Back
SplineSet
0 1400 m 5
 922 1400 l 5
 922 0 l 5
 0 0 l 5
 0 1400 l 5
EndSplineSet
Fore
SplineSet
0 1400 m 1
 922 1400 l 1
 922 0 l 1
 0 0 l 1
 0 1400 l 1
832 -141 m 25
 384 797 l 25
819 1524 m 25
 182 485 l 25
183 1400 m 25
 183 0 l 25
EndSplineSet
EndChar

StartChar: L
Encoding: 76 76 43
Width: 922
VWidth: 1947
GlyphClass: 2
Flags: W
LayerCount: 2
Fore
SplineSet
182 1400 m 29
 182 76 l 29
 832 76 l 29
EndSplineSet
EndChar

StartChar: M
Encoding: 77 77 44
Width: 922
VWidth: 1947
GlyphClass: 2
Flags: W
LayerCount: 2
Back
SplineSet
0 1 m 5
 0 1401 l 5
 922 1401 l 5
 922 1 l 5
 611 1 l 5
 610 211 l 5
 317 211 l 5
 317 1 l 5
 0 1 l 5
EndSplineSet
Fore
SplineSet
96 -74 m 25
 202 1402 l 25
 461 352 l 25
 720 1402 l 25
 826 -75 l 25
EndSplineSet
EndChar

StartChar: N
Encoding: 78 78 45
Width: 922
VWidth: 1947
GlyphClass: 2
Flags: W
LayerCount: 2
Back
SplineSet
0 1400 m 5
 922 1400 l 5
 922 0 l 5
 0 0 l 5
 0 1400 l 5
EndSplineSet
Fore
SplineSet
182 0 m 25
 182 1350 l 25
 740 49 l 25
 740 1400 l 25
EndSplineSet
EndChar

StartChar: O
Encoding: 79 79 46
Width: 922
VWidth: 1947
GlyphClass: 2
Flags: W
HStem: 35 21G<342.017 580.223> 1345 20G<339.338 583.414>
VStem: 172 578<295.917 1143.68>
LayerCount: 2
Fore
SplineSet
467 1350 m 6
 700 1350 750 1062 750 765 c 6
 750 696 l 6
 750 380 694 51 467 50 c 6
 456 50 l 6
 229 50 172 380 172 696 c 6
 172 763 l 6
 172 1063 224 1350 455 1350 c 6
 467 1350 l 6
EndSplineSet
EndChar

StartChar: P
Encoding: 80 80 47
Width: 922
VWidth: 1947
GlyphClass: 2
Flags: W
LayerCount: 2
Fore
SplineSet
182 717 m 29
 470 717 l 6
 650 717 740 791 740 972 c 6
 740 1063 l 6
 740 1259 659 1325 470 1325 c 6
 182 1325 l 5
 182 0 l 5
EndSplineSet
EndChar

StartChar: Q
Encoding: 81 81 48
Width: 922
VWidth: 1947
GlyphClass: 2
Flags: W
HStem: 35 21G<342.017 580.223> 1345 20G<339.338 583.414>
VStem: 172 578<295.917 1143.68>
LayerCount: 2
Fore
SplineSet
467 1350 m 6
 700 1350 750 1062 750 765 c 6
 750 696 l 6
 750 380 694 51 467 50 c 6
 456 50 l 6
 229 50 172 380 172 696 c 6
 172 763 l 6
 172 1063 224 1350 455 1350 c 6
 467 1350 l 6
461 399 m 29
 740 -144 l 29
EndSplineSet
EndChar

StartChar: R
Encoding: 82 82 49
Width: 922
VWidth: 1947
GlyphClass: 2
Flags: W
LayerCount: 2
Back
SplineSet
0 1458 m 5
 922 1458 l 5
 922 0 l 5
 0 0 l 5
 0 1458 l 5
EndSplineSet
Fore
SplineSet
822 -102 m 25
 461 712 l 25
164 717 m 25
 470 717 l 2
 650 717 757 792 757 973 c 2
 757 1063 l 2
 757 1259 659 1325 470 1325 c 2
 164 1325 l 1
 164 0 l 1
EndSplineSet
EndChar

StartChar: S
Encoding: 83 83 50
Width: 922
VWidth: 2334
GlyphClass: 2
Flags: W
LayerCount: 2
Fore
SplineSet
139 357 m 4
 139 203 294 50 452 50 c 14
 470 50 l 22
 624 50 760 183 760 337 c 14
 760 367 l 22
 760 471 707 628 583 696 c 6
 320 830 l 6
 230 876 188 957 188 1033 c 6
 188 1063 l 6
 188 1218 303 1350 458 1350 c 14
 465 1350 l 22
 598 1350 709 1293 744 1177 c 5
 752 1152 756 1093 756 1063 c 4
EndSplineSet
EndChar

StartChar: T
Encoding: 84 84 51
Width: 922
VWidth: 1947
GlyphClass: 2
Flags: W
LayerCount: 2
Fore
SplineSet
461 0 m 29
 461 1325 l 29
70 1325 m 29
 852 1325 l 29
EndSplineSet
EndChar

StartChar: U
Encoding: 85 85 52
Width: 922
VWidth: 1947
GlyphClass: 2
Flags: W
LayerCount: 2
Fore
SplineSet
182 1400 m 29
 182 337 l 22
 182 156 272 50 452 50 c 14
 470 50 l 22
 650 50 740 156 740 337 c 14
 740 1400 l 29
EndSplineSet
EndChar

StartChar: V
Encoding: 86 86 53
Width: 922
VWidth: 1708
GlyphClass: 2
Flags: W
LayerCount: 2
Back
SplineSet
0 -25 m 5
 0 1400 l 5
 922 1400 l 5
 922 -25 l 5
 0 -25 l 5
EndSplineSet
Fore
SplineSet
140 1504 m 25
 461 5 l 25
 780 1488 l 25
EndSplineSet
EndChar

StartChar: W
Encoding: 87 87 54
Width: 922
VWidth: 1947
GlyphClass: 2
Flags: W
LayerCount: 2
Back
SplineSet
0 1400 m 5
 317 1400 l 5
 317 1190 l 5
 610 1190 l 5
 611 1400 l 5
 922 1400 l 5
 922 0 l 5
 0 0 l 5
 0 1400 l 5
EndSplineSet
Fore
SplineSet
96 1475 m 25
 202 -1 l 25
 461 1049 l 25
 720 -1 l 25
 826 1476 l 25
EndSplineSet
EndChar

StartChar: X
Encoding: 88 88 55
Width: 922
VWidth: 1947
GlyphClass: 2
Flags: W
LayerCount: 2
Back
SplineSet
0 1400 m 5
 922 1400 l 5
 922 0 l 5
 0 0 l 5
 0 1400 l 5
EndSplineSet
Fore
SplineSet
780 1480 m 25
 142 -80 l 25
142 1480 m 25
 780 -80 l 25
EndSplineSet
EndChar

StartChar: Y
Encoding: 89 89 56
Width: 922
VWidth: 1947
GlyphClass: 2
Flags: W
LayerCount: 2
Back
SplineSet
0 1400 m 1
 922 1400 l 1
 922 -25 l 1
 0 -25 l 1
 0 1400 l 1
EndSplineSet
Fore
SplineSet
780 1480 m 17
 462 513 l 1
 461 -50 l 9
142 1480 m 25
 462 513 l 25
EndSplineSet
EndChar

StartChar: Z
Encoding: 90 90 57
Width: 922
VWidth: 1947
GlyphClass: 2
Flags: W
LayerCount: 2
Back
SplineSet
90 1425 m 5
 832 1425 l 5
 832 -25 l 5
 90 -25 l 5
 90 1425 l 5
EndSplineSet
Fore
SplineSet
90 1325 m 25
 780 1325 l 25
 142 76 l 25
 832 76 l 25
EndSplineSet
EndChar

StartChar: bracketleft
Encoding: 91 91 58
Width: 922
VWidth: 1947
GlyphClass: 2
Flags: W
LayerCount: 2
Fore
SplineSet
740 1480 m 21
 350 1480 l 5
 350 -80 l 29
 740 -80 l 13
EndSplineSet
EndChar

StartChar: backslash
Encoding: 92 92 59
Width: 922
VWidth: 1708
GlyphClass: 2
Flags: W
LayerCount: 2
Fore
SplineSet
740 -25 m 29
 182 1425 l 29
EndSplineSet
EndChar

StartChar: bracketright
Encoding: 93 93 60
Width: 922
VWidth: 1947
GlyphClass: 2
Flags: W
LayerCount: 2
Fore
SplineSet
182 1480 m 21
 572 1480 l 5
 572 -80 l 29
 182 -80 l 13
EndSplineSet
EndChar

StartChar: asciicircum
Encoding: 94 94 61
Width: 922
VWidth: 1947
GlyphClass: 2
Flags: W
LayerCount: 2
Back
SplineSet
0 1425 m 5
 922 1425 l 5
 922 0 l 5
 0 0 l 5
 0 1425 l 5
EndSplineSet
Fore
SplineSet
182 974 m 25
 461 1385 l 25
 740 974 l 25
EndSplineSet
EndChar

StartChar: underscore
Encoding: 95 95 62
Width: 922
VWidth: 1947
GlyphClass: 2
Flags: W
LayerCount: 2
Fore
SplineSet
90 -92 m 29
 832 -92 l 29
EndSplineSet
EndChar

StartChar: grave
Encoding: 96 96 63
Width: 922
VWidth: 1708
GlyphClass: 2
Flags: W
LayerCount: 2
Fore
SplineSet
633 1147 m 2
 642 1137 646 1125 646 1113 c 0
 646 1098 640 1084 628 1072 c 0
 616 1060 602 1054 588 1054 c 0
 576 1054 564 1058 553 1067 c 2
 310 1257 l 2
 288 1275 276 1304 276 1333 c 0
 276 1358 284 1383 300 1400 c 0
 316 1417 341 1424 365 1424 c 0
 395 1424 424 1411 442 1389 c 2
 633 1147 l 2
EndSplineSet
EndChar

StartChar: a
Encoding: 97 97 64
Width: 922
VWidth: 1947
GlyphClass: 2
Flags: W
LayerCount: 2
Fore
SplineSet
740 561 m 29
 452 561 l 22
 272 561 182 425 182 337 c 14
 182 259 l 22
 182 169 272 50 452 50 c 14
 470 50 l 22
 605 50 740 214 740 305 c 13
206 854 m 5
 243 944 325 974 452 974 c 14
 470 974 l 22
 650 974 740 898 740 719 c 14
 740 0 l 29
EndSplineSet
EndChar

StartChar: b
Encoding: 98 98 65
Width: 922
VWidth: 2334
GlyphClass: 2
Flags: W
VStem: 182 558<211.511 427 597 834.764>
LayerCount: 2
Fore
SplineSet
182 1400 m 29
 182 0 l 29
182 597 m 14
 182 427 l 22
 182 201 302 50 452 50 c 14
 470 50 l 22
 650 50 740 201 740 427 c 14
 740 597 l 22
 740 821 650 974 470 974 c 14
 452 974 l 22
 272 974 182 821 182 597 c 14
EndSplineSet
EndChar

StartChar: c
Encoding: 99 99 66
Width: 922
VWidth: 2334
GlyphClass: 2
Flags: W
LayerCount: 2
Fore
SplineSet
725 830 m 5
 693 936 608 973 470 973 c 14
 452 973 l 22
 272 973 182 821 182 597 c 14
 182 427 l 22
 182 201 302 50 452 50 c 14
 470 50 l 22
 606 50 690 86 724 188 c 5
EndSplineSet
EndChar

StartChar: d
Encoding: 100 100 67
Width: 922
VWidth: 1947
GlyphClass: 2
Flags: W
VStem: 182 558<211.511 427 597 834.764>
LayerCount: 2
Fore
SplineSet
740 1400 m 29
 740 0 l 29
182 597 m 14
 182 427 l 22
 182 201 302 50 452 50 c 14
 470 50 l 22
 650 50 740 201 740 427 c 14
 740 597 l 22
 740 821 650 974 470 974 c 14
 452 974 l 22
 272 974 182 821 182 597 c 14
EndSplineSet
EndChar

StartChar: e
Encoding: 101 101 68
Width: 922
VWidth: 1947
GlyphClass: 2
Flags: W
LayerCount: 2
Fore
SplineSet
182 561 m 29
 740 561 l 29
 740 719 l 22
 740 898 650 974 470 974 c 14
 452 974 l 22
 272 974 182 898 182 719 c 14
 182 337 l 22
 182 188 272 50 452 50 c 14
 470 50 l 22
 612 50 698 91 728 202 c 5
EndSplineSet
EndChar

StartChar: f
Encoding: 102 102 69
Width: 922
VWidth: 1947
GlyphClass: 2
Flags: W
LayerCount: 2
Fore
SplineSet
90 856 m 29
 740 856 l 29
740 1185 m 21
 740 1208 735 1230 725 1250 c 5
 696 1314 628 1350 560 1350 c 14
 542 1350 l 22
 452 1350 362 1274 362 1184 c 6
 362 0 l 13
EndSplineSet
EndChar

StartChar: g
Encoding: 103 103 70
Width: 922
VWidth: 1947
GlyphClass: 2
Flags: W
HStem: -309 392<291.277 452 470 630.723>
VStem: 182 558<-212.383 -107 -87 -0.131592 533.765 673 719 852.291>
LayerCount: 2
Fore
SplineSet
293 446 m 5
 232 415 182 347 182 281 c 6
 182 215 l 6
 182 150 228 100 289 68 c 5
684 880 m 5
 719 926 774 959 832 959 c 13
470 98 m 14
 452 98 l 22
 317 98 182 14 182 -87 c 14
 182 -107 l 22
 182 -220 317 -309 452 -309 c 14
 470 -309 l 22
 605 -309 740 -220 740 -107 c 14
 740 -87 l 22
 740 4 605 98 470 98 c 14
470 974 m 14
 452 974 l 22
 317 974 182 853 182 719 c 14
 182 673 l 22
 182 533 317 391 452 391 c 14
 470 391 l 22
 605 391 740 532 740 673 c 14
 740 719 l 22
 740 853 605 974 470 974 c 14
EndSplineSet
EndChar

StartChar: h
Encoding: 104 104 71
Width: 922
VWidth: 2334
GlyphClass: 2
Flags: W
LayerCount: 2
Fore
SplineSet
740 0 m 29
 740 719 l 22
 740 898 650 974 470 974 c 14
 452 974 l 22
 294 974 182 731 182 597 c 14
 182 513 l 29
182 1400 m 29
 182 0 l 29
EndSplineSet
EndChar

StartChar: k
Encoding: 107 107 74
Width: 922
VWidth: 1947
GlyphClass: 2
Flags: W
LayerCount: 2
Back
SplineSet
0 1425 m 5
 922 1425 l 5
 922 0 l 5
 0 0 l 5
 0 1425 l 5
EndSplineSet
Fore
SplineSet
832 -156 m 25
 381 621 l 25
740 1063 m 25
 183 384 l 25
182 1425 m 25
 182 0 l 25
EndSplineSet
EndChar

StartChar: l
Encoding: 108 108 75
Width: 922
VWidth: 1947
GlyphClass: 2
Flags: W
LayerCount: 2
Fore
SplineSet
182 75 m 29
 740 75 l 29
461 92 m 21
182 1325 m 29
 461 1325 l 29
 461 75 l 29
EndSplineSet
EndChar

StartChar: m
Encoding: 109 109 76
Width: 922
VWidth: 2334
GlyphClass: 2
Flags: W
LayerCount: 2
Fore
SplineSet
780 0 m 29
 780 809 l 22
 780 940 727 974 645 974 c 14
 635 974 l 22
 537 974 461 853 461 719 c 14
 461 603 l 29
461 0 m 29
 461 809 l 22
 461 940 408 974 326 974 c 14
 316 974 l 22
 218 974 142 853 142 719 c 14
 142 603 l 29
142 1024 m 29
 142 0 l 29
EndSplineSet
EndChar

StartChar: n
Encoding: 110 110 77
Width: 922
VWidth: 2334
GlyphClass: 2
Flags: W
LayerCount: 2
Fore
SplineSet
740 0 m 29
 740 719 l 22
 740 898 650 974 470 974 c 14
 452 974 l 22
 294 974 182 731 182 597 c 14
 182 513 l 29
182 1024 m 29
 182 0 l 29
EndSplineSet
EndChar

StartChar: o
Encoding: 111 111 78
Width: 922
VWidth: 1947
GlyphClass: 2
Flags: W
HStem: 35 21G<348.59 570.432> 968 20G<347.852 570.305>
VStem: 172 578<209.99 816.63>
LayerCount: 2
Fore
SplineSet
478 973 m 6
 663 973 750 800 750 562 c 6
 750 470 l 6
 750 226 665 50 476 50 c 6
 441 50 l 6
 257 50 172 230 172 471 c 6
 172 561 l 6
 172 798 257 973 439 973 c 6
 478 973 l 6
EndSplineSet
EndChar

StartChar: p
Encoding: 112 112 79
Width: 922
VWidth: 1947
GlyphClass: 2
Flags: W
VStem: 182 558<211.511 427 597 834.764>
LayerCount: 2
Fore
SplineSet
182 597 m 14
 182 427 l 22
 182 201 302 50 452 50 c 14
 470 50 l 22
 650 50 740 201 740 427 c 14
 740 597 l 22
 740 821 650 974 470 974 c 14
 452 974 l 22
 272 974 182 821 182 597 c 14
182 1024 m 29
 182 -385 l 29
EndSplineSet
EndChar

StartChar: q
Encoding: 113 113 80
Width: 922
VWidth: 1947
GlyphClass: 2
Flags: W
VStem: 182 558<211.511 427 597 834.764>
LayerCount: 2
Fore
SplineSet
740 1024 m 29
 740 -385 l 29
182 597 m 14
 182 427 l 22
 182 201 302 50 452 50 c 14
 470 50 l 22
 650 50 740 201 740 427 c 14
 740 597 l 22
 740 821 650 974 470 974 c 14
 452 974 l 22
 272 974 182 821 182 597 c 14
EndSplineSet
EndChar

StartChar: r
Encoding: 114 114 81
Width: 922
VWidth: 1947
GlyphClass: 2
Flags: W
LayerCount: 2
Fore
SplineSet
747 864 m 5
 711 937 648 974 540 974 c 14
 522 974 l 22
 342 974 182 694 182 470 c 14
 182 300 l 21
182 1024 m 29
 182 0 l 29
EndSplineSet
EndChar

StartChar: s
Encoding: 115 115 82
Width: 922
VWidth: 1947
GlyphClass: 2
Flags: W
LayerCount: 2
Fore
SplineSet
740 719 m 21
 740 750 733 781 721 810 c 5
 678 909 574 974 470 974 c 14
 452 974 l 22
 317 974 182 952 182 789 c 6
 182 777 l 6
 182 724 216 649 272 625 c 6
 648 451 l 6
 708 423 740 368 740 301 c 6
 740 255 l 6
 740 119 605 50 470 50 c 14
 422 50 l 22
 286 50 152 203 152 337 c 12
EndSplineSet
EndChar

StartChar: t
Encoding: 116 116 83
Width: 922
VWidth: 1947
GlyphClass: 2
Flags: W
LayerCount: 2
Back
SplineSet
0 1425 m 5
 922 1425 l 5
 922 -84 l 5
 0 -84 l 5
 0 1425 l 5
EndSplineSet
Fore
SplineSet
90 933 m 25
 740 933 l 25
720 215 m 17
 720 193 715 171 705 150 c 1
 676 87 608 50 540 50 c 10
 522 50 l 18
 432 50 338 127 342 216 c 2
 405 1506 l 9
EndSplineSet
EndChar

StartChar: u
Encoding: 117 117 84
Width: 922
VWidth: 2334
GlyphClass: 2
Flags: W
LayerCount: 2
Fore
SplineSet
182 1024 m 29
 182 337 l 22
 182 158 252 50 432 50 c 14
 450 50 l 22
 608 50 740 313 740 447 c 14
 740 531 l 29
740 0 m 29
 740 1024 l 29
EndSplineSet
EndChar

StartChar: v
Encoding: 118 118 85
Width: 922
VWidth: 1947
GlyphClass: 2
Flags: W
LayerCount: 2
Back
SplineSet
0 1024 m 5
 922 1024 l 5
 922 -25 l 5
 0 -25 l 5
 0 1024 l 5
EndSplineSet
Fore
SplineSet
90 1327 m 25
 461 50 l 25
 832 1325 l 25
EndSplineSet
EndChar

StartChar: w
Encoding: 119 119 86
Width: 922
VWidth: 1947
GlyphClass: 2
Flags: W
LayerCount: 2
Back
SplineSet
0 1024 m 5
 317 1024 l 5
 317 949 l 5
 610 949 l 5
 611 1024 l 5
 922 1024 l 5
 922 0 l 5
 0 0 l 5
 0 1024 l 5
EndSplineSet
Fore
SplineSet
96 1099 m 25
 202 75 l 25
 461 855 l 25
 720 75 l 25
 826 1100 l 25
EndSplineSet
EndChar

StartChar: x
Encoding: 120 120 87
Width: 922
VWidth: 1947
GlyphClass: 2
Flags: W
LayerCount: 2
Back
SplineSet
0 1024 m 5
 922 1024 l 5
 922 0 l 5
 0 0 l 5
 0 1024 l 5
EndSplineSet
Fore
SplineSet
780 1098 m 25
 142 -74 l 25
142 1098 m 25
 780 -75 l 25
EndSplineSet
EndChar

StartChar: y
Encoding: 121 121 88
Width: 922
VWidth: 1947
GlyphClass: 2
Flags: W
LayerCount: 2
Back
SplineSet
0 -410 m 5
 0 1024 l 5
 922 1024 l 5
 922 -410 l 5
 0 -410 l 5
EndSplineSet
Fore
SplineSet
832 1325 m 1
 508 -110 l 2
 484 -186 422 -294 324 -294 c 3
 252 -294 180 -239 152 -170 c 1
560 109 m 9
 90 1270 l 25
EndSplineSet
EndChar

StartChar: z
Encoding: 122 122 89
Width: 922
VWidth: 1947
GlyphClass: 2
Flags: W
LayerCount: 2
Back
SplineSet
87 1049 m 5
 837 1049 l 5
 837 -25 l 5
 87 -25 l 5
 87 1049 l 5
EndSplineSet
Fore
SplineSet
140 949 m 25
 780 949 l 25
 152 75 l 25
 852 75 l 25
EndSplineSet
EndChar

StartChar: braceleft
Encoding: 123 123 90
Width: 922
VWidth: 1947
GlyphClass: 2
Flags: W
LayerCount: 2
Fore
SplineSet
740 1480 m 21
 620 1480 l 6
 470 1480 350 1392 350 1242 c 6
 350 970 l 6
 350 862 272 732 120 732 c 6
 90 732 l 5
 120 732 l 6
 272 732 350 570 350 430 c 6
 350 158 l 6
 350 8 470 -80 620 -80 c 14
 740 -80 l 13
EndSplineSet
EndChar

StartChar: bar
Encoding: 124 124 91
Width: 922
VWidth: 1947
GlyphClass: 2
Flags: W
LayerCount: 2
Fore
SplineSet
461 -77 m 29
 461 1477 l 29
EndSplineSet
EndChar

StartChar: braceright
Encoding: 125 125 92
Width: 922
VWidth: 1947
GlyphClass: 2
Flags: W
LayerCount: 2
Fore
SplineSet
90 1480 m 21
 210 1480 l 6
 360 1480 480 1392 480 1242 c 6
 480 970 l 6
 480 862 558 732 710 732 c 6
 740 732 l 5
 710 732 l 6
 558 732 480 570 480 430 c 6
 480 158 l 6
 480 8 360 -80 210 -80 c 14
 90 -80 l 13
EndSplineSet
EndChar

StartChar: asciitilde
Encoding: 126 126 93
Width: 922
VWidth: 1947
GlyphClass: 2
Flags: W
LayerCount: 2
Fore
SplineSet
139 832 m 21
 170 940 244 977 317 977 c 14
 332 977 l 22
 361.255 977 402.783 963.149 435 936 c 6
 510 872.8 l 6
 536.671 850.325 562.589 833 590 833 c 14
 605 833 l 22
 686 833 754 886 784 977 c 13
EndSplineSet
EndChar

StartChar: cent
Encoding: 162 162 96
Width: 922
VWidth: 2334
GlyphClass: 2
Flags: W
LayerCount: 2
Fore
SplineSet
372 -110 m 25
 605 1182 l 25
725 830 m 1
 693 936 608 973 470 973 c 10
 452 973 l 18
 272 973 182 821 182 597 c 10
 182 427 l 18
 182 201 302 50 452 50 c 10
 470 50 l 18
 606 50 690 86 724 188 c 1
EndSplineSet
EndChar

StartChar: sterling
Encoding: 163 163 97
Width: 922
VWidth: 1947
GlyphClass: 2
Flags: W
LayerCount: 2
Fore
SplineSet
70 731 m 21
 720 731 l 13
740 1063 m 21
 738 1113 722 1192 696 1232 c 5
 646 1312 560 1350 470 1350 c 14
 452 1350 l 22
 272 1350 182 1242 182 1083 c 14
 182 1044 l 22
 182 993 200 951 227 896 c 6
 321 710 l 6
 347 657 362 570 362 516 c 14
 362 470 l 22
 362 305 226 126 123 59 c 6
 90 38 l 5
 123 59 l 6
 225 125 277 124 362 124 c 14
 391 124 l 22
 426 124 454 130 477 114 c 6
 549 67 l 6
 567 57 585 50 605 50 c 14
 650 50 l 22
 714 50 789 76 822 115 c 13
EndSplineSet
EndChar

StartChar: euro
Encoding: 8364 8364 98
Width: 922
VWidth: 1947
GlyphClass: 2
Flags: W
LayerCount: 2
Fore
SplineSet
613 565 m 29
 60 565 l 29
743 907 m 29
 90 907 l 29
775 172 m 5
 732 88 645 50 544 50 c 7
 296 50 255 416 255 732 c 7
 255 1056 299 1350 544 1350 c 7
 645 1350 732 1314 775 1232 c 5
EndSplineSet
EndChar

StartChar: yen
Encoding: 165 165 99
Width: 922
VWidth: 1947
GlyphClass: 2
Flags: W
LayerCount: 2
Back
SplineSet
0 1400 m 5
 922 1400 l 5
 922 -160 l 5
 0 -160 l 5
 0 1400 l 5
EndSplineSet
Fore
SplineSet
90 123 m 17
 832 123 l 9
90 382 m 17
 832 382 l 9
780 1480 m 17
 462 513 l 1
 461 -185 l 9
142 1480 m 25
 462 513 l 25
EndSplineSet
EndChar

StartChar: section
Encoding: 167 167 101
Width: 922
VWidth: 1947
GlyphClass: 2
Flags: W
LayerCount: 2
Fore
SplineSet
256 81 m 5
 293 -9 387 -94 481 -94 c 14
 497 -94 l 22
 619 -94 740 22 740 149 c 14
 740 172 l 22
 740 293 591 415 469 415 c 14
 453 415 l 22
664 1320 m 5
 625 1406 533 1490 441 1490 c 14
 425 1490 l 22
 303 1490 182 1368 182 1247 c 14
 182 1224 l 22
 182 1098 331 966 453 966 c 14
 469 966 l 22
470 966 m 14
 452 966 l 22
 317 966 182 877 182 743 c 14
 182 677 l 22
 182 537 317 415 452 415 c 14
 470 415 l 22
 605 415 740 536 740 677 c 14
 740 743 l 22
 740 877 605 966 470 966 c 14
EndSplineSet
EndChar

StartChar: copyright
Encoding: 169 169 103
Width: 922
VWidth: 1947
GlyphClass: 2
Flags: W
HStem: 178.62 825.76<273.41 651.659>
VStem: 65 792<396.468 790.977>
LayerCount: 2
Fore
SplineSet
461 1005 m 7
 724 1005 857 806 857 593 c 7
 857 387 724 179 461 179 c 7
 203 179 65 380 65 593 c 7
 65 809 206 1005 461 1005 c 7
608 452 m 5
 575 417 526 394 461 394 c 7
 332 394 263 486 263 592 c 7
 263 701 334 790 461 790 c 7
 525 790 574 769 607 734 c 5
EndSplineSet
EndChar

StartChar: ordfeminine
Encoding: 170 170 104
Width: 922
VWidth: 1947
GlyphClass: 2
Flags: W
LayerCount: 2
Fore
SplineSet
90 319 m 21
 832 319 l 13
699 1013 m 29
 454 1013 l 22
 301 1013 224 898 224 823 c 14
 224 784 l 22
 224 707 301 593 454 593 c 14
 469 593 l 22
 584 593 699 745 699 823 c 13
244 1267 m 5
 276 1343 346 1382 454 1382 c 14
 469 1382 l 22
 622 1382 699 1304 699 1152 c 14
 699 536 l 29
EndSplineSet
EndChar

StartChar: guillemotleft
Encoding: 171 171 105
Width: 922
VWidth: 1947
GlyphClass: 2
Flags: W
LayerCount: 2
Fore
SplineSet
772 124 m 29
 592 425 l 29
 592 512 l 29
 772 814 l 29
352 124 m 29
 172 425 l 29
 172 512 l 29
 352 814 l 29
EndSplineSet
EndChar

StartChar: logicalnot
Encoding: 172 172 106
Width: 922
VWidth: 1708
GlyphClass: 2
Flags: W
LayerCount: 2
Fore
SplineSet
50 600 m 29
 740 600 l 29
 740 214 l 29
EndSplineSet
EndChar

StartChar: softhyphen
Encoding: 173 173 107
Width: 922
VWidth: 1947
GlyphClass: 2
Flags: W
LayerCount: 2
Fore
SplineSet
222 600 m 29
 700 600 l 29
EndSplineSet
EndChar

StartChar: registered
Encoding: 174 174 108
Width: 922
VWidth: 1947
GlyphClass: 2
Flags: W
HStem: 178.62 825.76<273.41 651.659>
VStem: 65 792<397.963 792.472>
LayerCount: 2
Fore
SplineSet
631 375 m 29
 472 599 l 29
334 601 m 29
 477 601 l 6
 566 601 610 630 610 690 c 6
 610 725 l 6
 610 785 570 806 477 806 c 6
 334 806 l 5
 334 375 l 5
461 1005 m 7
 724 1005 857 808 857 595 c 7
 857 389 724 179 461 179 c 7
 203 179 65 382 65 595 c 7
 65 811 206 1005 461 1005 c 7
EndSplineSet
EndChar

StartChar: degree
Encoding: 176 176 110
Width: 922
VWidth: 1947
GlyphClass: 2
Flags: W
HStem: 882 451<321.727 602.014>
VStem: 236 450<967.489 1249.77>
LayerCount: 2
Fore
SplineSet
461 1333 m 7
 610 1333 686 1229 686 1108 c 7
 686 991 610 882 461 882 c 7
 314 882 236 987 236 1108 c 7
 236 1231 316 1333 461 1333 c 7
EndSplineSet
EndChar

StartChar: plusminus
Encoding: 177 177 111
Width: 922
VWidth: 1947
GlyphClass: 2
Flags: W
LayerCount: 2
Fore
SplineSet
50 108 m 29
 872 108 l 29
461 419 m 29
 461 1273 l 29
50 862 m 29
 872 862 l 29
EndSplineSet
EndChar

StartChar: twosuperior
Encoding: 178 178 112
Width: 922
VWidth: 2334
GlyphClass: 2
Flags: W
LayerCount: 2
Back
SplineSet
280 -25 m 5
 280 963 l 5
 230 987 l 5
 230 1479 l 5
 922 1479 l 5
 922 -25 l 5
 280 -25 l 5
EndSplineSet
Fore
SplineSet
334 1264 m 1
 360 1324 392 1350 477 1350 c 10
 487 1350 l 18
 586 1350 635 1315 635 1217 c 10
 635 1195 l 18
 635 1163 616 1093 585 1052 c 2
 403 843 l 2
 367 796 342 707 326 650 c 1
 686 650 l 9
EndSplineSet
EndChar

StartChar: threesuperior
Encoding: 179 179 113
Width: 922
VWidth: 2334
GlyphClass: 2
Flags: W
LayerCount: 2
Fore
SplineSet
288.74 1263.9 m 5
 315.141 1322.2 385.1 1360.15 455.06 1360.15 c 14
 466.94 1360.15 l 22
 556.04 1360.15 615.44 1296.9 615.44 1211.65 c 14
 615.44 1189.1 l 22
 615.44 1128.6 556.04 1022.35 467.6 1022.35 c 5
 356.06 1022.35 l 13
 466.94 1022.35 l 22
 585.74 1022.35 645.141 979.55 645.141 856.35 c 14
 645.141 845.35 l 22
 645.141 724.35 585.74 631.85 466.94 631.85 c 14
 455.06 631.85 l 22
 374.54 631.85 276.859 712.8 276.859 812.35 c 5
EndSplineSet
EndChar

StartChar: micro
Encoding: 181 181 115
Width: 922
VWidth: 2334
GlyphClass: 2
Flags: W
LayerCount: 2
Fore
SplineSet
141 -348 m 17
 177 -237 182 -174 182 -25 c 10
 182 516 l 25
182 1024 m 25
 182 397 l 18
 182 218 272 50 452 50 c 10
 470 50 l 18
 628 50 740 263 740 397 c 10
 740 531 l 25
770 -40 m 17
 753 14 740 36 740 99 c 2
 740 1024 l 9
EndSplineSet
EndChar

StartChar: paragraph
Encoding: 182 182 116
Width: 922
VWidth: 1947
GlyphClass: 2
Flags: W
LayerCount: 2
Fore
SplineSet
274 890 m 29
 274 1240 l 29
740 0 m 29
 740 1400 l 29
 380 1400 l 29
380 759 m 29
 362 759 l 6
 272 759 152 795 152 1057 c 6
 152 1127 l 6
 152 1313 267 1400 362 1400 c 6
 380 1400 l 5
 380 0 l 5
EndSplineSet
EndChar

StartChar: periodcentered
Encoding: 183 183 117
Width: 922
VWidth: 1947
GlyphClass: 2
Flags: W
HStem: 649.5 195<379.354 541.805>
VStem: 363.375 194.25<665.381 828.805>
LayerCount: 2
Fore
SplineSet
557.625 747 m 4
 557.625 695.25 517.875 649.5 460.125 649.5 c 4
 404.625 649.5 363.375 694.5 363.375 747 c 4
 363.375 798 401.625 844.5 460.125 844.5 c 4
 517.125 844.5 557.625 799.5 557.625 747 c 4
EndSplineSet
EndChar

StartChar: onesuperior
Encoding: 185 185 119
Width: 922
VWidth: 1708
GlyphClass: 2
Flags: W
LayerCount: 2
Back
SplineSet
157 857 m 5
 365 1045 l 5
 365 1180 l 5
 313 1236 l 5
 505 1425 l 5
 765 1425 l 5
 765 627 l 5
 157 627 l 5
 157 857 l 5
EndSplineSet
Fore
SplineSet
526 641 m 25
 526 1359 l 25
 254 1204 l 25
EndSplineSet
EndChar

StartChar: ordmasculine
Encoding: 186 186 120
Width: 922
VWidth: 1947
GlyphClass: 2
Flags: W
HStem: 598 787<330.014 591.986>
VStem: 215 492<727.746 1237.22>
LayerCount: 2
Fore
SplineSet
90 319 m 21
 832 319 l 13
461 1385 m 7
 640 1385 707 1189 707 962 c 7
 707 733 640 598 461 598 c 7
 282 598 215 733 215 962 c 7
 215 1189 282 1385 461 1385 c 7
EndSplineSet
EndChar

StartChar: guillemotright
Encoding: 187 187 121
Width: 922
VWidth: 1947
GlyphClass: 2
Flags: W
LayerCount: 2
Fore
SplineSet
150 124 m 29
 330 425 l 29
 330 512 l 29
 150 814 l 29
570 124 m 29
 750 425 l 29
 750 512 l 29
 570 814 l 29
EndSplineSet
EndChar

StartChar: OE
Encoding: 338 338 122
Width: 922
VWidth: 1947
GlyphClass: 2
Flags: W
HStem: 60 21G<233.5 387> 1320 20G<233.5 387>
VStem: 101 420<131.043 1271.54>
LayerCount: 2
Fore
SplineSet
821 75 m 21
 521 75 l 5
 521 244 l 5
 521 1156 l 6
 521 1325 l 5
 821 1325 l 5
770 732 m 5
 521 732 l 5
101 1156 m 6
 101 1249 182 1325 285 1325 c 6
 341 1325 l 6
 433 1325 521 1254 521 1156 c 6
 521 244 l 6
 521 150 433 75 341 75 c 6
 285 75 l 6
 182 75 101 153 101 244 c 14
 101 1156 l 6
EndSplineSet
EndChar

StartChar: oe
Encoding: 339 339 123
Width: 922
VWidth: 1947
GlyphClass: 2
Flags: W
HStem: 35 954<166.674 392.419>
VStem: 101 360<105.124 919.183>
LayerCount: 2
Fore
SplineSet
821 219 m 7
 821 115 738 50 641 50 c 7
 549 50 461 121 461 219 c 6
 461 805 l 6
 461 899 549 974 641 974 c 7
 740 974 821 910 821 805 c 14
 821 542 l 5
 461 542 l 5
101 805 m 6
 101 908 184 974 281 974 c 7
 373 974 461 903 461 805 c 6
 461 219 l 6
 461 125 373 50 281 50 c 7
 182 50 101 115 101 219 c 14
 101 805 l 6
EndSplineSet
EndChar

StartChar: AE
Encoding: 198 198 132
Width: 922
VWidth: 1947
GlyphClass: 2
Flags: W
LayerCount: 2
Back
SplineSet
0 0 m 5
 0 1425 l 5
 922 1425 l 5
 922 0 l 5
 0 0 l 5
EndSplineSet
Fore
SplineSet
78 -90 m 17
 265 1168 l 2
 279 1263 354 1325 462 1325 c 10
 521 1325 l 25
821 75 m 17
 521 75 l 1
 521 1325 l 1
 821 1325 l 1
770 764 m 1
 201 764 l 1
EndSplineSet
EndChar

StartChar: Eth
Encoding: 208 208 142
Width: 922
VWidth: 1947
GlyphClass: 2
Flags: W
HStem: 60 21G<222 581.604> 1320 20G<222 584.5>
VStem: 222 528<308.543 1136.27>
LayerCount: 2
Fore
SplineSet
42 756 m 29
 452 756 l 29
461 1325 m 6
 708 1325 750 1057 750 732 c 7
 750 401 703 75 461 75 c 6
 222 75 l 5
 222 1325 l 5
 461 1325 l 6
EndSplineSet
EndChar

StartChar: multiply
Encoding: 215 215 149
Width: 922
VWidth: 1708
GlyphClass: 2
Flags: W
LayerCount: 2
Fore
SplineSet
752 309 m 29
 170 923 l 29
170 309 m 29
 752 923 l 29
EndSplineSet
EndChar

StartChar: Thorn
Encoding: 222 222 156
Width: 922
VWidth: 1947
GlyphClass: 2
Flags: W
LayerCount: 2
Fore
SplineSet
182 445 m 29
 470 445 l 6
 650 445 740 566 740 747 c 6
 740 970 l 6
 740 1149 659 1230 470 1230 c 6
 182 1230 l 5
182 1540 m 5
 182 0 l 5
EndSplineSet
EndChar

StartChar: germandbls
Encoding: 223 223 157
Width: 922
VWidth: 1947
GlyphClass: 2
Flags: W
LayerCount: 2
Fore
SplineSet
182 -388 m 5
 182 1096 l 6
 182 1274 272 1350 452 1350 c 6
 470 1350 l 6
 610 1350 690 1242 690 1063 c 6
 690 1025 l 6
 690 844 600 787 420 787 c 6
 402 787 l 29
 470 787 l 22
 650 787 740 664 740 485 c 14
 740 337 l 22
 740 156 650 50 515 50 c 6
 507 50 l 6
 452 50 412 61 374 97 c 5
EndSplineSet
EndChar

StartChar: ae
Encoding: 230 230 164
Width: 922
VWidth: 1947
GlyphClass: 2
Flags: W
LayerCount: 2
Fore
SplineSet
821 219 m 7
 821 115 738 50 641 50 c 7
 549 50 461 121 461 219 c 6
 461 805 l 6
 461 900 549 974 641 974 c 7
 741 974 821 910 821 805 c 14
 821 542 l 5
 285 542 l 6
 182 542 101 462 101 358 c 6
 101 219 l 22
 101 115 182 50 281 50 c 7
 373 50 461 125 461 219 c 6
 461 805 l 6
 461 903 373 974 281 974 c 7
 185 974 101 909 101 805 c 7
EndSplineSet
EndChar

StartChar: eth
Encoding: 240 240 174
Width: 922
VWidth: 1947
GlyphClass: 2
Flags: W
VStem: 182 558<211.511 427 457 694.764>
LayerCount: 2
Fore
SplineSet
183 1099 m 29
 768 1339 l 29
740 430 m 29
 740 620 l 22
 740 909 489 1252 272 1432 c 13
182 457 m 14
 182 427 l 22
 182 201 302 50 452 50 c 14
 470 50 l 22
 650 50 740 201 740 427 c 14
 740 457 l 22
 740 681 650 849 470 849 c 14
 452 849 l 22
 272 849 182 681 182 457 c 14
EndSplineSet
EndChar

StartChar: divide
Encoding: 247 247 181
Width: 922
VWidth: 1947
GlyphClass: 2
Flags: W
HStem: 132.375 218.25<384.299 555.163> 849.75 220.5<383.975 554.921>
VStem: 359.5 219<156.744 327.66 874.119 1045.88>
LayerCount: 2
Fore
SplineSet
50 600 m 29
 872 600 l 29
578.5 960 m 4
 578.5 907.5 533.5 849.75 470.5 849.75 c 4
 401.5 849.75 359.5 912.75 359.5 960 c 4
 359.5 1007.25 401.5 1070.25 470.5 1070.25 c 4
 533.5 1070.25 578.5 1012.5 578.5 960 c 4
578.5 242.625 m 4
 578.5 187.875 534.25 132.375 470.5 132.375 c 4
 407.5 132.375 359.5 190.125 359.5 242.625 c 4
 359.5 291.375 405.25 350.625 470.5 350.625 c 4
 535.75 350.625 578.5 291.375 578.5 242.625 c 4
EndSplineSet
EndChar

StartChar: oslash
Encoding: 248 248 182
Width: 922
VWidth: 1947
GlyphClass: 2
Flags: W
HStem: 35 21G<348.59 570.432> 968 20G<347.852 570.305>
VStem: 172 578<209.99 816.63>
LayerCount: 2
Fore
SplineSet
478 973 m 6
 663 973 750 800 750 562 c 6
 750 470 l 6
 750 226 665 50 476 50 c 6
 441 50 l 6
 257 50 172 230 172 471 c 6
 172 561 l 6
 172 798 257 973 439 973 c 6
 478 973 l 6
144 -48 m 29
 783 1062 l 29
EndSplineSet
EndChar

StartChar: thorn
Encoding: 254 254 188
Width: 922
VWidth: 1947
GlyphClass: 2
Flags: W
HStem: 35 953<314.742 601.615>
VStem: 182 568<225.384 799.204>
LayerCount: 2
Fore
SplineSet
182 -387 m 25
 182 1400 l 25
461 973 m 3
 672 973 750 780 750 513 c 3
 750 244 672 50 461 50 c 3
 290 50 182 183 182 374 c 2
 182 685 l 2
 182 873 291 973 461 973 c 3
EndSplineSet
EndChar

StartChar: minus
Encoding: 8722 8722 190
Width: 922
VWidth: 1708
GlyphClass: 2
Flags: W
LayerCount: 2
Fore
SplineSet
50 600 m 29
 872 600 l 29
EndSplineSet
EndChar

StartChar: quoteleft
Encoding: 8216 8216 192
Width: 922
VWidth: 1947
GlyphClass: 2
Flags: W
HStem: 984.5 21G<417.75 475.5> 1371 55<566.409 601.285>
VStem: 348.75 194.25<1000.19 1103.37>
LayerCount: 2
Fore
SplineSet
349 1082 m 21
 350 1214 368 1400 598 1426 c 13
 613 1371 l 21
 544 1346 402 1249 505 1160 c 13
 349 1082 l 21
349 1082 m 4
 349 1134 389 1180 447 1180 c 4
 502 1180 543 1135 543 1082 c 4
 543 1031 505 985 447 985 c 4
 390 985 349 1030 349 1082 c 4
EndSplineSet
EndChar

StartChar: gravemodifier
Encoding: 715 715 193
Width: 922
VWidth: 2334
GlyphClass: 2
Flags: W
LayerCount: 2
Fore
SplineSet
392 1647 m 29
 590 1438 l 29
EndSplineSet
EndChar

StartChar: acute
Encoding: 180 180 194
Width: 922
VWidth: 1947
GlyphClass: 2
Flags: W
LayerCount: 2
Fore
SplineSet
561 1587 m 29
 362 1308 l 29
EndSplineSet
EndChar

StartChar: circumflex
Encoding: 710 710 195
Width: 922
VWidth: 1947
GlyphClass: 2
Flags: W
LayerCount: 2
Back
SplineSet
0 732 m 5
 0 1638 l 5
 922 1638 l 5
 922 732 l 5
 0 732 l 5
EndSplineSet
Fore
SplineSet
261 1460 m 25
 461 1600 l 25
 661 1460 l 25
EndSplineSet
EndChar

StartChar: tilde
Encoding: 732 732 196
Width: 922
VWidth: 1947
GlyphClass: 2
Flags: W
LayerCount: 2
Fore
SplineSet
182 1502 m 17
 201 1527.55 l 2
 234.158 1572.14 264.987 1612 334 1612 c 10
 350 1612 l 18
 385.216 1612 428.901 1594.99 451 1575.76 c 2
 470 1558.89 l 2
 492.258 1539.39 535.831 1522 571 1522 c 10
 588 1522 l 18
 658 1522 689.761 1557.49 724 1608.27 c 2
 740 1632 l 9
EndSplineSet
EndChar

StartChar: macronmodifier
Encoding: 713 713 197
Width: 922
VWidth: 1947
GlyphClass: 2
Flags: W
LayerCount: 2
Fore
SplineSet
687 1538 m 5
 234 1538 l 5
EndSplineSet
EndChar

StartChar: breve
Encoding: 728 728 198
Width: 922
VWidth: 1947
GlyphClass: 2
Flags: W
LayerCount: 2
Fore
SplineSet
692.667 1592.64 m 4
 633.274 1523.12 550.028 1480 458.5 1480 c 7
 367.254 1480 286.068 1522.85 228.501 1592 c 4
EndSplineSet
EndChar

StartChar: dotaccent
Encoding: 729 729 199
Width: 922
VWidth: 1947
GlyphClass: 2
Flags: W
HStem: 1437 180<379.688 533.766>
VStem: 367 180<1449.96 1604.04>
LayerCount: 2
Fore
SplineSet
367 1527 m 27
 367 1577 406 1617 456 1617 c 27
 506 1617 547 1577 547 1527 c 27
 547 1477 506 1437 456 1437 c 27
 406 1437 367 1477 367 1527 c 27
EndSplineSet
EndChar

StartChar: dieresis
Encoding: 168 168 200
Width: 922
VWidth: 1947
GlyphClass: 2
Flags: W
HStem: 1455 176<199.117 345.475 576.683 722.135>
VStem: 187 171<1466.61 1620.09> 565 169<1466.82 1619.9>
LayerCount: 2
Fore
SplineSet
358 1544 m 4
 358 1497 319 1455 273 1455 c 4
 227 1455 187 1494 187 1544 c 4
 187 1596 229 1631 272 1631 c 4
 321 1631 358 1590 358 1544 c 4
734 1544 m 4
 734 1492 693 1455 650 1455 c 4
 605 1455 565 1495 565 1544 c 4
 565 1594 605 1631 650 1631 c 4
 691 1631 734 1596 734 1544 c 4
EndSplineSet
EndChar

StartChar: ring
Encoding: 730 730 202
Width: 922
VWidth: 1947
GlyphClass: 2
Flags: W
HStem: 1222.6 110.4<375.36 530.777> 1517 110.4<375.36 530.777>
VStem: 250.6 110.4<1346.16 1503.84> 545 110.4<1348.44 1501.56>
LayerCount: 2
Fore
SplineSet
250.6 1425 m 31
 250.6 1537.2 338.6 1627.4 450.8 1627.4 c 31
 563 1627.4 655.4 1537.2 655.4 1425 c 31
 655.4 1312.8 563 1222.6 450.8 1222.6 c 31
 338.6 1222.6 250.6 1312.8 250.6 1425 c 31
361 1425 m 31
 361 1374 401 1333 452 1333 c 31
 503 1333 545 1374 545 1425 c 31
 545 1476 503 1517 452 1517 c 31
 401 1517 361 1476 361 1425 c 31
EndSplineSet
EndChar

StartChar: cedilla
Encoding: 184 184 203
Width: 922
VWidth: 1947
GlyphClass: 2
Flags: W
LayerCount: 2
Fore
SplineSet
498 18 m 21
 498 0 l 5
 489 -132 l 5
 630 -132 687 -191.082 687 -270 c 7
 687 -354.476 592.027 -411 501 -411 c 31
 417.055 -411 352 -379 300 -334 c 13
EndSplineSet
EndChar

StartChar: ogonek
Encoding: 731 731 204
Width: 922
VWidth: 1947
GlyphClass: 2
Flags: W
LayerCount: 2
Fore
SplineSet
606.889 -290.471 m 5
 579.998 -313.999 l 6
 557 -333 527.567 -344.8 495.6 -344.8 c 15
 424.946 -344.8 368.2 -286.653 368.2 -216 c 23
 368.2 -180.897 381.736 -149.178 403.982 -126 c 14
 530 0 l 29
 530 72 l 29
EndSplineSet
EndChar

StartChar: caron
Encoding: 711 711 205
Width: 922
VWidth: 1947
GlyphClass: 2
Flags: W
LayerCount: 2
Back
SplineSet
0 1422 m 5
 0 1736 l 5
 922 1736 l 5
 922 1422 l 5
 0 1422 l 5
EndSplineSet
Fore
SplineSet
261 1600 m 25
 461 1460 l 25
 661 1600 l 25
EndSplineSet
EndChar

StartChar: dotlessi
Encoding: 305 305 206
Width: 922
VWidth: 1947
GlyphClass: 2
Flags: W
LayerCount: 2
Fore
SplineSet
182 75 m 29
 740 75 l 29
461 92 m 21
182 949 m 29
 461 949 l 29
 461 75 l 29
EndSplineSet
EndChar

StartChar: currency
Encoding: 164 164 210
Width: 922
VWidth: 1947
GlyphClass: 2
Flags: W
LayerCount: 2
Fore
SplineSet
810 433 m 21
 639 604 l 5
283 960 m 5
 112 1131 l 13
112 433 m 21
 284 605 l 5
639 960 m 5
 810 1131 l 13
469 1039 m 22
 591 1039 712 916 712 796 c 14
 712 772 l 22
 712 645 591 529 469 529 c 14
 453 529 l 22
 331 529 210 646 210 772 c 14
 210 796 l 22
 210 916 331 1039 453 1039 c 14
 469 1039 l 22
EndSplineSet
EndChar

StartChar: brokenbar
Encoding: 166 166 211
Width: 922
VWidth: 1947
GlyphClass: 2
Flags: W
LayerCount: 2
Fore
SplineSet
461 -77 m 21
 461 600 l 5
461 832 m 5
 461 1477 l 13
EndSplineSet
EndChar

StartChar: onequarter
Encoding: 188 188 212
Width: 922
VWidth: 1708
GlyphClass: 2
Flags: W
LayerCount: 2
Back
SplineSet
-153 972 m 5
 55 1207 l 5
 55 1295 l 5
 3 1351 l 5
 195 1555 l 5
 455 1555 l 5
 455 1124 l 5
 660 1588 l 5
 996 1388 l 5
 622 575 l 5
 886 575 l 5
 886 -209 l 5
 477 -209 l 5
 477 260 l 5
 264 -204 l 5
 -52 -25 l 5
 308 789 l 5
 -153 789 l 5
 -153 972 l 5
EndSplineSet
Fore
SplineSet
182 -25 m 25
 740 1425 l 25
216 803 m 25
 216 1504 l 25
 -56 1319 l 25
778 -209 m 25
 778 525 l 25
 499 41 l 25
 864 41 l 25
EndSplineSet
EndChar

StartChar: onehalf
Encoding: 189 189 213
Width: 922
VWidth: 1708
GlyphClass: 2
Flags: W
LayerCount: 2
Back
SplineSet
-153 972 m 5
 55 1207 l 5
 55 1295 l 5
 3 1351 l 5
 195 1555 l 5
 455 1555 l 5
 455 1109 l 5
 636 1576 l 5
 888 1480 l 5
 568 619 l 5
 1119 619 l 5
 1119 -345 l 5
 427 -345 l 5
 427 242 l 5
 252 -228 l 5
 0 -68 l 5
 332 789 l 5
 -153 789 l 5
 -153 972 l 5
EndSplineSet
Fore
SplineSet
182 -25 m 25
 740 1425 l 25
216 803 m 25
 216 1504 l 25
 -56 1319 l 25
531 372 m 1
 557 432 589 473 674 473 c 10
 684 473 l 18
 783 473 832 423 832 325 c 10
 832 303 l 18
 832 271 813 201 782 160 c 2
 600 -49 l 2
 564 -91 543 -141 525 -210 c 1
 883 -210 l 9
EndSplineSet
EndChar

StartChar: threequarters
Encoding: 190 190 214
Width: 922
VWidth: 1708
GlyphClass: 2
Flags: W
LayerCount: 2
Back
SplineSet
0 -65 m 5
 0 1725 l 5
 922 1720 l 5
 922 1275 l 5
 618 575 l 5
 886 575 l 5
 886 -209 l 5
 477 -209 l 5
 477 251 l 5
 275 -215 l 5
 0 -65 l 5
EndSplineSet
Fore
SplineSet
182 -25 m 25
 740 1425 l 25
778 -209 m 25
 778 525 l 25
 499 41 l 25
 864 41 l 25
86 1432 m 1
 110 1491 173 1528 236 1528 c 10
 246 1528 l 18
 323 1528 380 1456 380 1400 c 2
 380 1389 l 2
 380 1328 327 1255 247 1255 c 1
 247 1255 407 1230 407 1075 c 10
 407 1064 l 18
 407 943 354 864 247 864 c 10
 236 864 l 18
 164 864 76 866 76 966 c 1
EndSplineSet
EndChar

StartChar: Lslash
Encoding: 321 321 216
Width: 922
VWidth: 1947
GlyphClass: 2
Flags: W
LayerCount: 2
Fore
SplineSet
40 512 m 29
 642 730 l 29
182 1400 m 29
 182 76 l 29
 832 76 l 29
EndSplineSet
EndChar

StartChar: lslash
Encoding: 322 322 257
Width: 922
VWidth: 1947
GlyphClass: 2
Flags: W
LayerCount: 2
Fore
SplineSet
182 75 m 29
 740 75 l 29
461 92 m 21
182 1325 m 29
 461 1325 l 29
 461 75 l 29
160 512 m 29
 762 730 l 29
EndSplineSet
EndChar

StartChar: dotlessj
Encoding: 567 567 260
Width: 922
VWidth: 1947
GlyphClass: 2
Flags: W
LayerCount: 2
Fore
SplineSet
292 -110 m 7
 292 -207 375 -294 476 -294 c 31
 578 -294 660 -229 660 -109 c 6
 660 949 l 29
 267 949 l 29
EndSplineSet
EndChar

StartChar: eng
Encoding: 331 331 261
Width: 922
VWidth: 2334
GlyphClass: 2
Flags: W
LayerCount: 2
Fore
SplineSet
331 -228 m 5
 365 -271 419 -294 475 -294 c 14
 526 -294 l 22
 660 -294 740 -170 740 -28 c 14
 740 719 l 22
 740 898 650 974 470 974 c 14
 452 974 l 22
 294 974 182 731 182 597 c 14
 182 513 l 29
182 1024 m 29
 182 0 l 29
EndSplineSet
EndChar

StartChar: ellipsis
Encoding: 8230 8230 266
Width: 922
VWidth: 1947
GlyphClass: 2
Flags: W
HStem: 32 161<85.7646 220.235 393.734 528.003 700.966 836.003>
VStem: 77 152<39.5804 185.127> 385 152<39.5804 184.739> 692 153<39.5804 184.739>
LayerCount: 2
Fore
SplineSet
845 113 m 4
 845 71 812 32 768 32 c 4
 726 32 692 70 692 113 c 4
 692 155 725 193 768 193 c 4
 813 193 845 152 845 113 c 4
229 113 m 4
 229 71 197 32 153 32 c 4
 110 32 77 70 77 113 c 4
 77 155 109 193 153 193 c 4
 197 193 229 152 229 113 c 4
537 113 m 4
 537 71 504 32 460 32 c 4
 418 32 385 70 385 113 c 4
 385 155 417 193 460 193 c 4
 505 193 537 152 537 113 c 4
EndSplineSet
EndChar

StartChar: uparrow
Encoding: 8593 8593 267
Width: 922
VWidth: 1708
GlyphClass: 2
Flags: W
LayerCount: 2
Fore
SplineSet
922 -99 m 5
 0 -99 l 5
 0 1044 l 5
 922 1044 l 5
 922 -99 l 5
821 620 m 29
 461 991 l 29
 101 620 l 29
461 991 m 29
 461 177 l 29
EndSplineSet
EndChar

StartChar: downarrow
Encoding: 8595 8595 268
Width: 922
VWidth: 1708
GlyphClass: 2
Flags: W
LayerCount: 2
Fore
SplineSet
922 124 m 1
 0 124 l 1
 0 1331 l 1
 922 1331 l 1
 922 124 l 1
821 580 m 25
 461 177 l 25
 101 580 l 25
461 177 m 25
 461 991 l 25
EndSplineSet
EndChar

StartChar: spaceopenbox
Encoding: 9251 9251 269
Width: 922
VWidth: 1708
GlyphClass: 2
Flags: W
LayerCount: 2
Fore
SplineSet
740 124 m 25
 740 -92 l 25
 182 -92 l 25
 182 124 l 25
EndSplineSet
EndChar

StartChar: uni2074
Encoding: 8308 8308 271
Width: 922
VWidth: 1947
GlyphClass: 2
Flags: W
LayerCount: 2
Back
SplineSet
118 1425 m 5
 792 1425 l 5
 792 544 l 5
 118 544 l 5
 118 1425 l 5
EndSplineSet
Fore
SplineSet
601 544 m 25
 601 1402 l 25
 178 839 l 25
 869 839 l 25
EndSplineSet
EndChar

StartChar: Eng
Encoding: 330 330 273
Width: 922
VWidth: 2334
GlyphClass: 2
Flags: W
LayerCount: 2
Fore
SplineSet
331 -228 m 5
 365 -271 419 -294 475 -294 c 14
 526 -294 l 22
 660 -294 740 -170 740 -28 c 14
 740 1063 l 22
 740 1242 650 1350 470 1350 c 14
 452 1350 l 22
 294 1350 182 1092 182 958 c 14
 182 906 l 29
182 1400 m 29
 182 0 l 29
EndSplineSet
EndChar

StartChar: dcroat
Encoding: 273 273 274
Width: 922
VWidth: 1947
GlyphClass: 2
Flags: W
VStem: 182 558<211.511 427 597 834.764>
LayerCount: 2
Fore
SplineSet
370 1280 m 29
 862 1280 l 29
740 1400 m 25
 740 0 l 25
182 597 m 10
 182 427 l 18
 182 201 302 50 452 50 c 10
 470 50 l 18
 650 50 740 201 740 427 c 10
 740 597 l 18
 740 821 650 974 470 974 c 10
 452 974 l 18
 272 974 182 821 182 597 c 10
EndSplineSet
EndChar

StartChar: bullet
Encoding: 8226 8226 280
Width: 922
VWidth: 1947
GlyphClass: 2
Flags: W
HStem: 516 303<362.141 557.916>
VStem: 315 291<564.375 772.875>
LayerCount: 2
Fore
SplineSet
606 669 m 4
 606 594 540 516 460 516 c 4
 379 516 315 596 315 669 c 4
 315 746 383 819 460 819 c 4
 537 819 606 746 606 669 c 4
EndSplineSet
EndChar

StartChar: florin
Encoding: 402 402 281
Width: 922
VWidth: 1947
GlyphClass: 2
Flags: W
LayerCount: 2
Fore
SplineSet
832 1280 m 5
 799 1332 741 1350 675 1350 c 15
 574 1350 496 1281 491 1181 c 14
 431 -127 l 22
 426 -212 350 -311 247 -311 c 7
 192 -311 125 -278 89 -220 c 5
180 827 m 29
 772 827 l 29
EndSplineSet
EndChar

StartChar: dagger
Encoding: 8224 8224 282
Width: 922
VWidth: 1947
GlyphClass: 2
Flags: W
LayerCount: 2
Fore
SplineSet
461 1425 m 25
 461 -386 l 25
90 950 m 25
 832 950 l 25
EndSplineSet
EndChar

StartChar: daggerdbl
Encoding: 8225 8225 283
Width: 922
VWidth: 1947
GlyphClass: 2
Flags: W
LayerCount: 2
Fore
SplineSet
90 89 m 25
 832 89 l 25
461 1425 m 29
 461 -386 l 25
90 950 m 25
 832 950 l 25
EndSplineSet
EndChar

StartChar: trademark
Encoding: 8482 8482 284
Width: 922
VWidth: 1947
GlyphClass: 2
Flags: W
LayerCount: 2
Back
SplineSet
0 466 m 5
 0 1400 l 5
 922 1400 l 5
 922 466 l 5
 736 466 l 5
 736 519 l 5
 589 519 l 5
 589 466 l 5
 0 466 l 5
EndSplineSet
Fore
SplineSet
488 411 m 25
 488 1401 l 25
 661 615 l 25
 834 1401 l 25
 833 411 l 25
236 469 m 25
 236 1325 l 25
36 1325 m 25
 436 1325 l 25
EndSplineSet
EndChar

StartChar: Ecyrillic
Encoding: 1028 1028 290
Width: 922
VWidth: 1708
GlyphClass: 2
Flags: W
LayerCount: 2
Fore
SplineSet
182 756 m 29
 560 755 l 29
712 310 m 4
 673 165 599 50 461 50 c 7
 213 50 172 416 172 732 c 7
 172 1057 216 1350 461 1350 c 7
 606 1350 680 1228 717 1076 c 4
EndSplineSet
EndChar

StartChar: Becyrillic
Encoding: 1041 1041 298
Width: 922
VWidth: 1947
GlyphClass: 2
Flags: W
LayerCount: 2
Fore
SplineSet
182 787 m 29
 470 787 l 6
 650 787 740 666 740 485 c 6
 740 312 l 6
 740 133 659 50 470 50 c 6
 182 50 l 5
 182 1325 l 13
 742 1325 l 29
EndSplineSet
EndChar

StartChar: Gecyrillic
Encoding: 1043 1043 299
Width: 922
VWidth: 1947
GlyphClass: 2
Flags: W
LayerCount: 2
Fore
SplineSet
182 0 m 29
 182 1324 l 29
 832 1324 l 29
EndSplineSet
EndChar

StartChar: Decyrillic
Encoding: 1044 1044 300
Width: 922
VWidth: 1947
GlyphClass: 2
Flags: W
LayerCount: 2
Back
SplineSet
0 1425 m 5
 922 1425 l 5
 922 118 l 5
 832 -190 l 5
 95 -190 l 5
 0 118 l 5
 0 1425 l 5
EndSplineSet
Fore
SplineSet
122 -162 m 17
 122 76 l 9
 800 76 l 17
 800 -162 l 9
212 76 m 17
 355 966 l 2
 373 1078 480 1277 602 1325 c 9
 720 1325 l 17
 720 76 l 9
EndSplineSet
EndChar

StartChar: Zhecyrillic
Encoding: 1046 1046 302
Width: 922
VWidth: 1947
GlyphClass: 2
Flags: W
LayerCount: 2
Back
SplineSet
0 1400 m 5
 922 1400 l 5
 922 0 l 5
 0 0 l 5
 0 1400 l 5
EndSplineSet
Fore
SplineSet
832 -85 m 25
 600 697 l 25
90 -85 m 25
 321 697 l 25
90 1500 m 25
 461 215 l 25
 832 1500 l 25
461 1350 m 25
 461 -20 l 25
EndSplineSet
EndChar

StartChar: Zecyrillic
Encoding: 1047 1047 303
Width: 922
VWidth: 1947
GlyphClass: 2
Flags: W
LayerCount: 2
Fore
SplineSet
180 1190 m 1
 220 1296 326 1350 432 1350 c 10
 470 1350 l 18
 605 1350 695 1218 695 1063 c 10
 695 1022 l 18
 695 912 605 809 471 809 c 1
 302 809 l 9
 470 809 l 18
 650 809 740 641 740 417 c 10
 740 397 l 18
 740 177 650 50 470 50 c 10
 432 50 l 18
 310 50 162 156 162 337 c 1
EndSplineSet
EndChar

StartChar: Iicyrillic
Encoding: 1048 1048 304
Width: 922
VWidth: 1947
GlyphClass: 2
Flags: W
LayerCount: 2
Back
SplineSet
0 1400 m 5
 922 1400 l 5
 922 0 l 5
 0 0 l 5
 0 1400 l 5
EndSplineSet
Fore
SplineSet
740 0 m 25
 740 1350 l 25
 182 49 l 25
 182 1400 l 25
EndSplineSet
EndChar

StartChar: Elcyrillic
Encoding: 1051 1051 307
Width: 922
VWidth: 1947
GlyphClass: 2
Flags: W
LayerCount: 2
Back
SplineSet
0 1425 m 5
 922 1425 l 5
 922 0 l 5
 0 0 l 5
 0 1425 l 5
EndSplineSet
Fore
SplineSet
123 -99 m 16
 345 966 l 2
 377 1107 480 1277 602 1325 c 9
 740 1325 l 25
 740 0 l 25
EndSplineSet
EndChar

StartChar: Pecyrillic
Encoding: 1055 1055 311
Width: 922
VWidth: 1947
GlyphClass: 2
Flags: W
LayerCount: 2
Fore
SplineSet
182 0 m 29
 182 1325 l 29
 740 1325 l 29
 740 0 l 29
EndSplineSet
EndChar

StartChar: Ucyrillic
Encoding: 1059 1059 315
Width: 922
VWidth: 1947
GlyphClass: 2
Flags: W
LayerCount: 2
Back
SplineSet
0 1400 m 5
 922 1400 l 5
 922 -40 l 5
 0 -40 l 5
 0 1400 l 5
EndSplineSet
Fore
SplineSet
780 1480 m 16
 479 214 l 2
 442 73 366 51 300 50 c 2
 272 50 l 2
 252 50 231 55 212 61 c 2
 182 73 l 9
142 1480 m 25
 531 459 l 25
EndSplineSet
EndChar

StartChar: Efcyrillic
Encoding: 1060 1060 316
Width: 922
VWidth: 1947
GlyphClass: 2
Flags: W
VStem: 128.65 664.7<375.188 1049.34>
LayerCount: 2
Fore
SplineSet
468 1252 m 6
 736 1252 794 1001 794 754 c 6
 794 697 l 6
 794 435 729 149 468 149 c 6
 456 149 l 6
 194 149 129 435 129 697 c 6
 129 753 l 6
 129 1002 189 1252 455 1252 c 6
 468 1252 l 6
461 1425 m 29
 461 -25 l 29
EndSplineSet
EndChar

StartChar: Tsecyrillic
Encoding: 1062 1062 318
Width: 922
VWidth: 1947
GlyphClass: 2
Flags: W
LayerCount: 2
Back
SplineSet
0 1400 m 5
 870 1400 l 5
 870 -302 l 5
 0 -302 l 5
 0 1400 l 5
EndSplineSet
Fore
SplineSet
670 60 m 29
 795 60 l 29
 660 -189 l 25
182 1400 m 25
 182 75 l 29
 670 75 l 21
 670 1400 l 9
EndSplineSet
EndChar

StartChar: Checyrillic
Encoding: 1063 1063 319
Width: 922
VWidth: 1947
GlyphClass: 2
Flags: W
LayerCount: 2
Fore
SplineSet
740 512 m 29
 452 512 l 6
 272 512 182 633 182 814 c 6
 182 1400 l 21
740 1400 m 5
 740 0 l 5
EndSplineSet
EndChar

StartChar: Shacyrillic
Encoding: 1064 1064 320
Width: 922
VWidth: 1947
GlyphClass: 2
Flags: W
LayerCount: 2
Fore
SplineSet
461 1184 m 17
 461 75 l 13
132 1400 m 25
 132 75 l 29
 790 75 l 29
 790 1400 l 25
EndSplineSet
EndChar

StartChar: Shchacyrillic
Encoding: 1065 1065 321
Width: 922
VWidth: 1947
GlyphClass: 2
Flags: W
LayerCount: 2
Back
SplineSet
0 1400 m 5
 900 1400 l 5
 900 -302 l 5
 0 -302 l 5
 0 1400 l 5
EndSplineSet
Fore
SplineSet
436 1184 m 17
 436 75 l 9
740 60 m 25
 845 60 l 25
 690 -189 l 25
132 1400 m 25
 132 75 l 25
 740 75 l 17
 740 1400 l 9
EndSplineSet
EndChar

StartChar: Hardsigncyrillic
Encoding: 1066 1066 322
Width: 922
VWidth: 1947
GlyphClass: 2
Flags: W
LayerCount: 2
Back
SplineSet
60 1425 m 5
 922 1425 l 5
 922 -60 l 5
 0 -60 l 5
 0 712 l 5
 140 714 l 5
 140 959 l 5
 60 959 l 5
 60 1425 l 5
EndSplineSet
Fore
SplineSet
332 747 m 25
 530 747 l 2
 650 747 740 626 740 445 c 2
 740 337 l 2
 740 158 650 75 530 75 c 2
 332 75 l 1
 332 1325 l 9
 130 1325 l 25
 4 896 l 25
EndSplineSet
EndChar

StartChar: Yericyrillic
Encoding: 1067 1067 323
Width: 922
VWidth: 1947
GlyphClass: 2
Flags: W
LayerCount: 2
Fore
SplineSet
770 1400 m 17
 770 0 l 9
152 797 m 25
 220 797 l 2
 400 797 490 676 490 495 c 2
 490 337 l 2
 490 158 409 75 220 75 c 2
 152 75 l 1
 152 1400 l 1
EndSplineSet
EndChar

StartChar: Softsigncyrillic
Encoding: 1068 1068 324
Width: 922
VWidth: 1947
GlyphClass: 2
Flags: W
LayerCount: 2
Fore
SplineSet
182 747 m 25
 470 747 l 2
 650 747 740 626 740 445 c 2
 740 337 l 2
 740 158 659 75 470 75 c 2
 182 75 l 1
 182 1400 l 1
EndSplineSet
EndChar

StartChar: Ereversedcyrillic
Encoding: 1069 1069 325
Width: 922
VWidth: 1947
GlyphClass: 2
Flags: W
LayerCount: 2
Fore
SplineSet
362 756 m 25
 740 755 l 25
209 315 m 1
 247 167 322 50 461 50 c 3
 709 50 750 416 750 732 c 3
 750 1056 706 1350 461 1350 c 3
 316 1350 242 1227 205 1074 c 1
EndSplineSet
EndChar

StartChar: IUcyrillic
Encoding: 1070 1070 326
Width: 922
VWidth: 1947
GlyphClass: 2
Flags: W
HStem: 35 21G<538.998 683.016> 1345 20G<538.984 683.002>
VStem: 432 358<228.099 1202.05>
LayerCount: 2
Fore
SplineSet
142 700 m 29
 420 700 l 29
132 1400 m 21
 132 0 l 13
611 1350 m 4
 756 1350 790 1057 790 732 c 4
 790 401 756 50 611 50 c 4
 467 50 432 416 432 732 c 4
 432 1057 467 1350 611 1350 c 4
EndSplineSet
EndChar

StartChar: IAcyrillic
Encoding: 1071 1071 327
Width: 922
VWidth: 1947
GlyphClass: 2
Flags: W
LayerCount: 2
Back
SplineSet
0 1458 m 5
 922 1458 l 5
 922 0 l 5
 0 0 l 5
 0 1458 l 5
EndSplineSet
Fore
SplineSet
100 -102 m 25
 461 712 l 25
740 717 m 25
 452 717 l 2
 272 717 182 792 182 973 c 2
 182 1063 l 2
 182 1259 263 1325 452 1325 c 2
 740 1325 l 1
 740 0 l 1
EndSplineSet
EndChar

StartChar: becyrillic
Encoding: 1073 1073 329
Width: 922
VWidth: 2334
GlyphClass: 2
Flags: HW
VStem: 182 558<211.511 427 597 834.764>
LayerCount: 2
Fore
SplineSet
740 1386 m 21
 634 1346 570 1325 460 1325 c 7
 322 1325 182 1222 182 953 c 6
 182 510 l 13
182 597 m 14
 182 427 l 22
 182 201 302 50 452 50 c 14
 470 50 l 22
 650 50 740 201 740 427 c 14
 740 597 l 22
 740 821 650 974 470 974 c 14
 452 974 l 22
 272 974 182 821 182 597 c 14
EndSplineSet
EndChar

StartChar: vecyrillic
Encoding: 1074 1074 330
Width: 922
VWidth: 2334
GlyphClass: 2
Flags: W
VStem: 182 524<642.081 890.727>
LayerCount: 2
Fore
SplineSet
182 75 m 21
 490 75 l 22
 669 75 759 181 759 316 c 14
 759 325 l 22
 759 458 668 549 489 549 c 6
 182 549 l 5
 436 549 l 6
 616 549 706 657 706 772 c 7
 706 887 616 949 436 949 c 6
 182 949 l 13
 182 75 l 21
EndSplineSet
EndChar

StartChar: gecyrillic
Encoding: 1075 1075 331
Width: 922
VWidth: 1947
GlyphClass: 2
Flags: W
LayerCount: 2
Fore
SplineSet
152 719 m 21
 152 750 160 781 172 810 c 5
 215 909 319 974 422 974 c 14
 440 974 l 22
 575 974 710 952 710 789 c 6
 710 777 l 6
 710 724 677 649 620 625 c 6
 244 451 l 6
 185 423 152 368 152 301 c 6
 152 255 l 6
 152 119 287 50 422 50 c 14
 470 50 l 22
 607 50 740 203 740 337 c 12
EndSplineSet
EndChar

StartChar: decyrillic
Encoding: 1076 1076 332
Width: 922
VWidth: 1947
GlyphClass: 2
Flags: W
LayerCount: 2
Back
SplineSet
0 1049 m 5
 922 1049 l 5
 922 118 l 5
 832 -190 l 5
 95 -190 l 5
 0 118 l 5
 0 1049 l 5
EndSplineSet
Fore
SplineSet
122 -162 m 17
 122 76 l 9
 800 76 l 17
 800 -162 l 9
212 76 m 17
 295 605 l 1
 318 731 470 923 602 949 c 9
 720 949 l 17
 720 76 l 9
EndSplineSet
EndChar

StartChar: zhecyrillic
Encoding: 1078 1078 334
Width: 922
VWidth: 1947
GlyphClass: 2
Flags: W
LayerCount: 2
Back
SplineSet
0 1400 m 5
 922 1400 l 5
 922 0 l 5
 0 0 l 5
 0 1400 l 5
EndSplineSet
Fore
SplineSet
832 -142 m 25
 594 494 l 25
90 -142 m 25
 326 494 l 25
90 1038 m 25
 461 149 l 25
 832 1038 l 25
461 1024 m 25
 461 -14 l 25
EndSplineSet
EndChar

StartChar: zecyrillic
Encoding: 1079 1079 335
Width: 922
VWidth: 1947
GlyphClass: 2
Flags: W
LayerCount: 2
Fore
SplineSet
180 813 m 5
 220 919 326 973 432 973 c 14
 470 973 l 22
 605 973 695 898 695 808 c 14
 695 797 l 22
 695 686 605 560 471 560 c 5
 362 560 l 13
 470 560 l 22
 650 560 740 450 740 334 c 14
 740 314 l 22
 740 201 650 50 470 50 c 14
 452 50 l 22
 330 50 182 124 182 265 c 5
EndSplineSet
EndChar

StartChar: iicyrillic
Encoding: 1080 1080 336
Width: 922
VWidth: 1947
GlyphClass: 2
Flags: W
LayerCount: 2
Back
SplineSet
0 1023 m 5
 922 1023 l 5
 922 0 l 5
 0 0 l 5
 0 1023 l 5
EndSplineSet
Fore
SplineSet
740 0 m 25
 740 973 l 25
 182 49 l 25
 182 1023 l 25
EndSplineSet
EndChar

StartChar: kacyrillic
Encoding: 1082 1082 338
Width: 922
VWidth: 1947
GlyphClass: 2
Flags: W
LayerCount: 2
Back
SplineSet
0 1325 m 5
 922 1325 l 5
 922 0 l 5
 0 0 l 5
 0 1325 l 5
EndSplineSet
Fore
SplineSet
834 -125 m 25
 392 458 l 25
770 981 m 25
 182 126 l 25
182 1023 m 25
 182 -25 l 25
EndSplineSet
EndChar

StartChar: elcyrillic
Encoding: 1083 1083 339
Width: 922
VWidth: 1947
GlyphClass: 2
Flags: W
LayerCount: 2
Back
SplineSet
0 1048 m 5
 922 1048 l 5
 922 0 l 5
 0 0 l 5
 0 1048 l 5
EndSplineSet
Fore
SplineSet
123 -99 m 16
 305 604 l 2
 337 745 480 900 602 948 c 9
 740 948 l 25
 740 0 l 25
EndSplineSet
EndChar

StartChar: emcyrillic
Encoding: 1084 1084 340
Width: 922
VWidth: 1947
GlyphClass: 2
Flags: W
LayerCount: 2
Back
SplineSet
0 1 m 5
 0 1025 l 5
 922 1025 l 5
 922 1 l 5
 611 1 l 5
 610 76 l 5
 317 76 l 5
 317 1 l 5
 0 1 l 5
EndSplineSet
Fore
SplineSet
96 -74 m 25
 184 1026 l 25
 461 120 l 25
 740 1026 l 25
 826 -75 l 25
EndSplineSet
EndChar

StartChar: encyrillic
Encoding: 1085 1085 341
Width: 922
VWidth: 1947
GlyphClass: 2
Flags: W
LayerCount: 2
Fore
SplineSet
182 470 m 29
 740 470 l 29
740 1023 m 29
 740 0 l 29
182 1023 m 29
 182 0 l 29
EndSplineSet
EndChar

StartChar: tecyrillic
Encoding: 1090 1090 346
Width: 922
VWidth: 1947
GlyphClass: 2
Flags: W
LayerCount: 2
Fore
SplineSet
461 0 m 29
 461 950 l 29
70 950 m 29
 852 950 l 29
EndSplineSet
EndChar

StartChar: efcyrillic
Encoding: 1092 1092 348
Width: 922
VWidth: 1947
GlyphClass: 2
Flags: W
HStem: 50 21G<331.5 586.5>
VStem: 129 664<212.354 723.104>
LayerCount: 2
Fore
SplineSet
481 892 m 2
 693 892 793 722 793 509 c 2
 793 426 l 2
 793 206 695 50 478 50 c 6
 438 50 l 6
 225 50 129 210 129 427 c 2
 129 508 l 2
 129 721 226 892 436 892 c 2
 481 892 l 2
461 1049 m 25
 461 -386 l 25
EndSplineSet
EndChar

StartChar: tsecyrillic
Encoding: 1094 1094 350
Width: 922
VWidth: 2334
GlyphClass: 2
Flags: W
LayerCount: 2
Fore
SplineSet
182 1024 m 25
 182 337 l 18
 182 158 252 50 432 50 c 14
 450 50 l 22
 608 50 740 313 740 447 c 10
 740 531 l 25
740 1024 m 25
 740 79 l 17
 779 43 782 8 782 -56 c 3
 782 -114 724 -188 660 -228 c 9
EndSplineSet
EndChar

StartChar: checyrillic
Encoding: 1095 1095 351
Width: 922
VWidth: 1947
GlyphClass: 2
Flags: W
LayerCount: 2
Fore
SplineSet
182 1024 m 25
 182 729 l 18
 182 550 252 427 432 427 c 10
 450 427 l 18
 608 427 740 705 740 839 c 10
 740 1024 l 25
 740 0 l 17
EndSplineSet
EndChar

StartChar: shacyrillic
Encoding: 1096 1096 352
Width: 922
VWidth: 2334
GlyphClass: 2
Flags: W
LayerCount: 2
Fore
SplineSet
142 1024 m 25
 142 215 l 18
 142 84 195 50 277 50 c 14
 287 50 l 22
 385 50 461 203 461 337 c 10
 461 1024 l 25
 461 215 l 18
 461 84 514 50 596 50 c 14
 606 50 l 22
 704 50 780 203 780 337 c 10
 780 1024 l 25
 780 0 l 25
EndSplineSet
EndChar

StartChar: shchacyrillic
Encoding: 1097 1097 353
Width: 922
VWidth: 2334
GlyphClass: 2
Flags: W
LayerCount: 2
Fore
SplineSet
142 1024 m 25
 142 215 l 18
 142 84 195 50 277 50 c 14
 287 50 l 22
 385 50 461 203 461 337 c 10
 461 1024 l 25
 461 215 l 18
 461 84 514 50 596 50 c 14
 606 50 l 22
 704 50 780 203 780 337 c 10
 780 1024 l 17
 780 79 l 1
 864 -1 822 -151 700 -228 c 8
EndSplineSet
EndChar

StartChar: hardsigncyrillic
Encoding: 1098 1098 354
Width: 922
VWidth: 1947
GlyphClass: 2
Flags: W
LayerCount: 2
Back
SplineSet
60 1023 m 5
 922 1023 l 5
 922 -60 l 5
 0 -60 l 5
 0 246 l 5
 140 248 l 5
 140 572 l 5
 60 572 l 5
 60 1023 l 5
EndSplineSet
Fore
SplineSet
332 561 m 25
 470 561 l 18
 604 561 740 485 740 352 c 2
 740 274 l 2
 740 139 605 76 470 75 c 14
 332 75 l 29
 332 923 l 25
 130 923 l 25
 4 462 l 25
EndSplineSet
EndChar

StartChar: yericyrillic
Encoding: 1099 1099 355
Width: 922
VWidth: 1947
GlyphClass: 2
Flags: W
LayerCount: 2
Fore
SplineSet
790 0 m 25
 790 1023 l 25
132 1023 m 25
 132 75 l 29
 240 75 l 22
 375 75 490 124 490 259 c 2
 490 337 l 2
 490 470 387 561 240 561 c 10
 132 561 l 25
EndSplineSet
EndChar

StartChar: softsigncyrillic
Encoding: 1100 1100 356
Width: 922
VWidth: 1947
GlyphClass: 2
Flags: W
LayerCount: 2
Fore
SplineSet
182 1048 m 25
 182 75 l 29
 470 75 l 22
 605 75 740 124 740 259 c 2
 740 337 l 2
 740 470 615 561 470 561 c 10
 182 561 l 25
EndSplineSet
EndChar

StartChar: ereversedcyrillic
Encoding: 1101 1101 357
Width: 922
VWidth: 1947
GlyphClass: 2
Flags: W
LayerCount: 2
Fore
SplineSet
317 512 m 25
 724 512 l 25
182 817 m 1
 214 923 299 975 437 975 c 14
 455 975 l 22
 635 975 725 821 725 597 c 10
 725 427 l 18
 725 201 605 50 455 50 c 10
 437 50 l 18
 301 50 217 102 183 204 c 1
EndSplineSet
EndChar

StartChar: iucyrillic
Encoding: 1102 1102 358
Width: 922
VWidth: 1947
GlyphClass: 2
Flags: W
HStem: 50 21G<518.998 663.002> 958 20G<518.993 663.007>
VStem: 402 378<173.025 853.296>
LayerCount: 2
Fore
SplineSet
142 512 m 25
 402 512 l 25
142 1023 m 25
 142 0 l 25
591 978 m 3
 736 978 780 780 780 513 c 3
 780 244 736 50 591 50 c 7
 447 50 402 244 402 513 c 3
 402 781 447 978 591 978 c 3
EndSplineSet
EndChar

StartChar: iacyrillic
Encoding: 1103 1103 359
Width: 922
VWidth: 1947
GlyphClass: 2
Flags: W
LayerCount: 2
Back
SplineSet
0 0 m 1
 0 1089 l 1
 922 1089 l 1
 922 0 l 1
 0 0 l 1
EndSplineSet
Fore
SplineSet
63 -129 m 25
 480 488 l 25
740 0 m 25
 740 949 l 25
 452 949 l 18
 317 949 182 885 182 750 c 2
 182 679 l 2
 182 547 272 487 452 487 c 10
 740 487 l 25
EndSplineSet
EndChar

StartChar: ecyrillic
Encoding: 1108 1108 362
Width: 922
VWidth: 1947
GlyphClass: 2
Flags: W
LayerCount: 2
Fore
SplineSet
606 512 m 29
 199 512 l 29
741 830 m 5
 709 936 624 973 486 973 c 14
 468 973 l 22
 288 973 198 821 198 597 c 14
 198 427 l 22
 198 201 318 50 468 50 c 14
 486 50 l 22
 622 50 706 86 740 188 c 5
EndSplineSet
EndChar

StartChar: numero
Encoding: 8470 8470 372
Width: 922
VWidth: 1947
Flags: W
VStem: 585 246<609.458 1204.05>
LayerCount: 2
Back
SplineSet
0 1400 m 5
 922 1400 l 5
 922 0 l 5
 0 0 l 5
 0 1400 l 5
EndSplineSet
Fore
SplineSet
719 1258 m 3
 809 1258 842 1109 842 904 c 3
 842 698 809 546 719 546 c 3
 630 546 596 698 596 904 c 3
 596 1109 630 1258 719 1258 c 3
80 0 m 25
 80 1405 l 25
 438 -5 l 25
 438 1400 l 25
EndSplineSet
EndChar

StartChar: caroncomb
Encoding: 780 780 377
Width: 922
VWidth: 1947
Flags: W
LayerCount: 2
Back
SplineSet
0 1422 m 5
 0 1736 l 5
 922 1736 l 5
 922 1422 l 5
 0 1422 l 5
EndSplineSet
Fore
SplineSet
261 1600 m 25
 461 1460 l 25
 661 1600 l 25
EndSplineSet
EndChar

StartChar: gravecomb
Encoding: 768 768 379
Width: 922
VWidth: 2334
Flags: W
LayerCount: 2
Fore
SplineSet
392 1647 m 29
 590 1438 l 29
EndSplineSet
EndChar

StartChar: acutecomb
Encoding: 769 769 380
Width: 922
VWidth: 2334
Flags: W
LayerCount: 2
Fore
SplineSet
530 1647 m 29
 332 1438 l 29
EndSplineSet
EndChar

StartChar: tildecomb
Encoding: 771 771 381
Width: 922
VWidth: 1947
Flags: W
LayerCount: 2
Fore
SplineSet
182 1502 m 17
 201 1527.55 l 2
 234.22 1572.22 264.987 1612 334 1612 c 10
 350 1612 l 18
 385.216 1612 428.901 1594.99 451 1575.76 c 2
 470 1558.89 l 2
 492.258 1539.39 535.831 1522 571 1522 c 10
 588 1522 l 18
 658 1522 688.704 1555.92 724 1608.27 c 2
 740 1632 l 9
EndSplineSet
EndChar

StartChar: hookabovecomb
Encoding: 777 777 382
Width: 922
VWidth: 1947
Flags: W
LayerCount: 2
Fore
SplineSet
468 1255 m 5
 468 1387 l 5
 609 1387 666 1416.08 666 1495 c 7
 666 1579.48 564.476 1606 480 1606 c 31
 398.519 1606 341.163 1589.67 279 1549 c 13
EndSplineSet
EndChar

StartChar: dotbelowcomb
Encoding: 803 803 383
Width: 922
VWidth: 2334
Flags: W
HStem: -343 180<384.688 538.766>
VStem: 372 180<-330.039 -175.961>
LayerCount: 2
Fore
SplineSet
372 -253 m 31
 372 -203 411 -163 461 -163 c 31
 511 -163 552 -203 552 -253 c 31
 552 -303 511 -343 461 -343 c 31
 411 -343 372 -303 372 -253 c 31
EndSplineSet
EndChar

StartChar: commaturnedabovecmb
Encoding: 786 786 396
Width: 922
VWidth: 1947
Flags: W
LayerCount: 2
Fore
SplineSet
498 18 m 21
 498 0 l 5
 489 -132 l 5
 630 -132 687 -191.082 687 -270 c 7
 687 -354.476 592.027 -411 501 -411 c 31
 417.055 -411 352 -379 300 -334 c 13
EndSplineSet
EndChar

StartChar: Hbar
Encoding: 294 294 400
Width: 922
VWidth: 1947
Flags: W
LayerCount: 2
Fore
SplineSet
60 1170 m 25
 862 1170 l 25
182 732 m 25
 740 732 l 25
740 1400 m 25
 740 0 l 25
182 1400 m 25
 182 0 l 25
EndSplineSet
EndChar

StartChar: hbar
Encoding: 295 295 401
Width: 922
VWidth: 1947
Flags: W
LayerCount: 2
Fore
SplineSet
60 1280 m 29
 552 1280 l 29
740 0 m 25
 740 719 l 18
 740 898 650 974 470 974 c 10
 452 974 l 18
 294 974 182 731 182 597 c 10
 182 513 l 25
182 1400 m 25
 182 0 l 25
EndSplineSet
EndChar

StartChar: IJ
Encoding: 306 306 410
Width: 922
VWidth: 1947
Flags: W
LayerCount: 2
Fore
SplineSet
427 337 m 13
 515 337 l 22
 605 337 650 425 650 597 c 14
 650 1325 l 29
40 75 m 29
 562 75 l 29
271 92 m 21
40 1325 m 29
 882 1325 l 5
271 1326 m 5
 271 75 l 13
EndSplineSet
EndChar

StartChar: Tbar
Encoding: 358 358 430
Width: 922
VWidth: 1708
Flags: W
LayerCount: 2
Fore
SplineSet
115 560 m 25
 805 560 l 25
461 0 m 25
 461 1325 l 25
70 1325 m 25
 852 1325 l 25
EndSplineSet
EndChar

StartChar: tbar
Encoding: 359 359 431
Width: 922
VWidth: 1947
Flags: W
LayerCount: 2
Back
SplineSet
0 1425 m 5
 922 1425 l 5
 922 -84 l 5
 0 -84 l 5
 0 1425 l 5
EndSplineSet
Fore
SplineSet
115 560 m 25
 805 560 l 25
90 933 m 25
 740 933 l 25
705 150 m 1
 676 87 608 50 540 50 c 10
 522 50 l 18
 432 50 338 127 342 216 c 2
 405 1506 l 9
EndSplineSet
EndChar

StartChar: A
Encoding: 65 65 461
Width: 922
VWidth: 1708
Flags: W
LayerCount: 2
Back
SplineSet
0 0 m 5
 0 1425 l 5
 922 1425 l 5
 922 0 l 5
 0 0 l 5
EndSplineSet
Fore
SplineSet
234 324 m 25
 688 324 l 25
141 -108 m 25
 461 1356 l 25
 783 -120 l 25
EndSplineSet
EndChar

StartChar: Lambda
Encoding: 923 923 462
Width: 922
VWidth: 1708
Flags: W
LayerCount: 2
Back
SplineSet
0 0 m 5
 0 1425 l 5
 922 1425 l 5
 922 0 l 5
 0 0 l 5
EndSplineSet
Fore
SplineSet
128 -148 m 25
 461 1356 l 25
 792 -152 l 25
EndSplineSet
EndChar

StartChar: Delta
Encoding: 916 916 463
Width: 922
VWidth: 1708
Flags: W
LayerCount: 2
Back
SplineSet
0 0 m 5
 0 1425 l 5
 922 1425 l 5
 922 0 l 5
 0 0 l 5
EndSplineSet
Fore
SplineSet
740 76 m 9
 461 1356 l 17
 182 75 l 1
 740 76 l 9
EndSplineSet
EndChar

StartChar: Theta
Encoding: 920 920 464
Width: 922
VWidth: 1947
Flags: W
HStem: 35 21G<342.017 580.223> 1345 20G<339.338 583.414>
VStem: 172 578<295.917 1143.68>
LayerCount: 2
Fore
SplineSet
467 1350 m 6
 700 1350 750 1062 750 765 c 6
 750 696 l 6
 750 380 694 51 467 50 c 6
 456 50 l 6
 229 50 172 380 172 696 c 6
 172 763 l 6
 172 1063 224 1350 455 1350 c 6
 467 1350 l 6
340 699 m 21
 435 699 488 699 582 699 c 13
EndSplineSet
EndChar

StartChar: Xi
Encoding: 926 926 465
Width: 922
VWidth: 1708
Flags: W
LayerCount: 2
Fore
SplineSet
182 337 m 29
 182 75 l 29
 740 75 l 29
 740 337 l 29
272 700 m 29
 650 700 l 29
182 1049 m 29
 182 1325 l 29
 740 1325 l 29
 740 1049 l 29
EndSplineSet
EndChar

StartChar: Sigma
Encoding: 931 931 468
Width: 922
VWidth: 1947
Flags: W
LayerCount: 2
Back
SplineSet
90 1425 m 5
 834 1425 l 5
 834 -25 l 5
 90 -25 l 5
 90 1425 l 5
EndSplineSet
Fore
SplineSet
832 50 m 1
 132 50 l 1
 462 734 l 1
 132 1325 l 1
 832 1325 l 1
EndSplineSet
EndChar

StartChar: Psi
Encoding: 936 936 473
Width: 922
VWidth: 1947
Flags: W
LayerCount: 2
Fore
SplineSet
760 1350 m 29
 760 728 l 22
 760 612 686 512 576 512 c 14
 346 512 l 22
 247 512 162 632 162 728 c 14
 162 1350 l 29
461 1425 m 29
 461 -24 l 29
EndSplineSet
EndChar

StartChar: Omega
Encoding: 937 937 474
Width: 922
VWidth: 1947
Flags: W
LayerCount: 2
Fore
SplineSet
90 75 m 5
 317 75 l 4
 317 323 l 5
 206 430 172 622 172 817 c 6
 172 872 l 6
 172 1118 224 1351 455 1351 c 6
 467 1351 l 6
 700 1351 750 1117 750 874 c 6
 750 817 l 6
 750 623 717 415 605 323 c 5
 605 75 l 5
 832 75 l 29
EndSplineSet
EndChar

StartChar: alpha
Encoding: 945 945 483
Width: 922
VWidth: 1947
Flags: W
LayerCount: 2
Fore
SplineSet
780 1024 m 5
 603.79 191 l 6
 583.337 98.026 519 35 411 35 c 7
 250.847 35 172 243.998 172 513 c 7
 172 780.002 250.922 988 411 988 c 7
 519.005 988 584.165 922.814 604.436 832 c 6
 783 0 l 21
EndSplineSet
EndChar

StartChar: beta
Encoding: 946 946 484
Width: 922
VWidth: 2334
Flags: W
LayerCount: 2
Fore
SplineSet
182 -321 m 29
 182 719 l 22
 182 898 272 974 452 974 c 14
 456 974 l 22
 636 974 726 899 726 784 c 7
 726 669 636 549 456 549 c 6
 401 549 l 5
 489 549 l 6
 668 549 759 458 759 325 c 14
 759 259 l 22
 759 124 669 50 490 50 c 14
 452 50 l 22
 272 50 182 124 182 259 c 14
EndSplineSet
EndChar

StartChar: gamma
Encoding: 947 947 485
Width: 922
VWidth: 2334
Flags: W
LayerCount: 2
Back
SplineSet
0 1024 m 5
 922 1024 l 5
 922 -386 l 5
 0 -386 l 5
 0 1024 l 5
EndSplineSet
Fore
SplineSet
461 -386 m 25
 461 49 l 25
164 1086 m 25
 461 49 l 25
 753 1069 l 25
EndSplineSet
EndChar

StartChar: delta
Encoding: 948 948 486
Width: 922
VWidth: 2334
Flags: W
VStem: 182 558<211.511 427 597 834.764>
LayerCount: 2
Back
SplineSet
120 1455 m 5
 922 1455 l 5
 922 -51 l 5
 0 -51 l 5
 0 1098 l 5
 120 1098 l 5
 120 1455 l 5
EndSplineSet
Fore
SplineSet
740 1325 m 25
 162 1325 l 25
 634 912 l 25
182 597 m 10
 182 427 l 18
 182 201 302 50 452 50 c 10
 470 50 l 18
 650 50 740 201 740 427 c 10
 740 597 l 18
 740 821 650 974 470 974 c 10
 452 974 l 18
 272 974 182 821 182 597 c 10
EndSplineSet
EndChar

StartChar: epsilon
Encoding: 949 949 487
Width: 922
VWidth: 2334
Flags: W
LayerCount: 2
Fore
SplineSet
712 900 m 5
 676 950 598 974 490 974 c 14
 452 974 l 22
 272 974 182 899 182 764 c 7
 182 655 267 533 456 533 c 14
 608 533 l 29
 456 533 l 22
 267 533 182 402 182 317 c 14
 182 300 l 22
 182 156 272 50 452 50 c 14
 490 50 l 22
 605 50 664 66 711 124 c 5
EndSplineSet
EndChar

StartChar: zeta
Encoding: 950 950 488
Width: 922
VWidth: 2334
Flags: W
LayerCount: 2
Back
SplineSet
0 1389 m 5
 812 1389 l 5
 812 512 l 5
 922 512 l 5
 922 -411 l 5
 0 -411 l 5
 0 1389 l 5
EndSplineSet
Fore
SplineSet
372 1049 m 17
 470 957 625 949 760 949 c 1
 713 889 635 834 570 788 c 2
 365 627 l 2
 276 557 182 467 182 357 c 10
 182 337 l 18
 182 156 272 50 452 50 c 10
 470 50 l 18
 650 50 740 0 740 -104 c 3
 740 -263 650 -294 461 -294 c 9
EndSplineSet
EndChar

StartChar: eta
Encoding: 951 951 489
Width: 922
VWidth: 2334
Flags: W
LayerCount: 2
Fore
SplineSet
740 -387 m 29
 740 719 l 22
 740 898 650 974 470 974 c 14
 452 974 l 22
 294 974 182 731 182 597 c 14
 182 513 l 29
182 1024 m 29
 182 0 l 29
EndSplineSet
EndChar

StartChar: theta
Encoding: 952 952 490
Width: 922
VWidth: 1947
Flags: W
HStem: 35 21G<348.59 570.432> 968 20G<347.852 570.305>
VStem: 172 578<209.99 816.63>
LayerCount: 2
Fore
SplineSet
478 973 m 6
 663 973 750 800 750 562 c 6
 750 470 l 6
 750 226 665 50 476 50 c 6
 441 50 l 6
 257 50 172 230 172 471 c 6
 172 561 l 6
 172 798 257 973 439 973 c 6
 478 973 l 6
170 512 m 21
 265 512 658 512 752 512 c 13
EndSplineSet
EndChar

StartChar: lambda
Encoding: 955 955 491
Width: 922
VWidth: 2334
Flags: W
LayerCount: 2
Back
SplineSet
0 0 m 5
 0 1410 l 5
 922 1410 l 5
 922 0 l 5
 0 0 l 5
EndSplineSet
Fore
SplineSet
308 1527 m 25
 461 975 l 25
164 -62 m 25
 461 975 l 25
 753 -45 l 25
EndSplineSet
EndChar

StartChar: xi
Encoding: 958 958 494
Width: 922
VWidth: 2334
Flags: W
LayerCount: 2
Back
SplineSet
0 1425 m 5
 700 1425 l 5
 700 804 l 5
 922 804 l 5
 922 -410 l 5
 0 -410 l 5
 0 1425 l 5
EndSplineSet
Fore
SplineSet
458 -294 m 17
 568 -294 740 -220 740 -120 c 10
 740 -88 l 18
 740 -8 560 50 490 50 c 10
 452 50 l 18
 272 50 182 156 182 300 c 10
 182 317 l 18
 182 402 267 533 456 533 c 10
 648 533 l 25
 456 533 l 18
 267 533 182 655 182 764 c 0
 182 1027 458 954 620 1077 c 1
 481 1083 366 1151 278 1244 c 9
EndSplineSet
EndChar

StartChar: pi
Encoding: 960 960 496
Width: 922
VWidth: 2334
Flags: W
LayerCount: 2
Back
SplineSet
90 1350 m 5
 832 1350 l 5
 832 0 l 5
 90 0 l 5
 90 1350 l 5
EndSplineSet
Fore
SplineSet
10 844 m 17
 70 910 146 949 292 949 c 2
 630 949 l 2
 780 949 864 988 912 1062 c 9
650 949 m 25
 650 168 l 18
 650 45 702 -80 782 -142 c 9
140 -142 m 17
 214 -80 272 64 272 168 c 10
 272 949 l 25
EndSplineSet
EndChar

StartChar: rho
Encoding: 961 961 497
Width: 922
VWidth: 2334
Flags: W
VStem: 182 558<189.236 427 597 812.489>
LayerCount: 2
Fore
SplineSet
182 -386 m 29
 182 514 l 29
740 427 m 14
 740 597 l 22
 740 823 620 974 470 974 c 14
 452 974 l 22
 272 974 182 823 182 597 c 14
 182 427 l 22
 182 203 272 50 452 50 c 14
 470 50 l 22
 650 50 740 203 740 427 c 14
EndSplineSet
EndChar

StartChar: sigmafinal
Encoding: 962 962 498
Width: 922
VWidth: 2059
Flags: W
LayerCount: 2
Fore
SplineSet
783 919 m 9
 742 934 l 18
 676 959 613 971 555 971 c 0
 329 971 182 812 182 597 c 10
 182 427 l 18
 182 201 302 50 452 50 c 10
 470 50 l 18
 605 50 740 -0 740 -92 c 2
 740 -111 l 2
 740 -227 628 -294 458 -294 c 9
EndSplineSet
EndChar

StartChar: sigma
Encoding: 963 963 499
Width: 922
VWidth: 1947
Flags: W
HStem: 35 21G<338.59 560.432> 968 20G<337.852 560.305>
VStem: 172 558<201.677 824.771>
LayerCount: 2
Fore
SplineSet
468 973 m 6
 653 973 730 800 730 562 c 6
 730 470 l 6
 730 226 655 50 466 50 c 6
 431 50 l 6
 247 50 172 230 172 471 c 6
 172 561 l 6
 172 798 247 973 429 973 c 6
 468 973 l 6
882 933 m 29
 610 932 l 29
EndSplineSet
EndChar

StartChar: tau
Encoding: 964 964 500
Width: 922
VWidth: 2334
Flags: W
LayerCount: 2
Back
SplineSet
90 1350 m 5
 832 1350 l 5
 832 0 l 5
 90 0 l 5
 90 1350 l 5
EndSplineSet
Fore
SplineSet
10 774 m 17
 48 852 146 949 292 949 c 2
 630 949 l 2
 780 949 885 1089 912 1162 c 9
239 -142 m 17
 333 -110 461 120 461 358 c 2
 461 949 l 9
EndSplineSet
EndChar

StartChar: upsilon
Encoding: 965 965 501
Width: 922
VWidth: 1947
Flags: W
LayerCount: 2
Fore
SplineSet
491 973 m 7
 703 973 750 780 750 513 c 7
 750 244 672 50 461 50 c 7
 251 50 182 244 182 513 c 4
 182 1023 l 5
EndSplineSet
EndChar

StartChar: phi
Encoding: 966 966 502
Width: 922
VWidth: 1947
Flags: W
LayerCount: 2
Fore
SplineSet
461 -386 m 5
 461 734 l 6
 461 898 525 973 605 973 c 7
 732 973 790 780 790 513 c 7
 790 244 672 50 461 50 c 7
 251 50 132 244 132 513 c 6
 132 973 l 5
EndSplineSet
EndChar

StartChar: chi
Encoding: 967 967 503
Width: 922
VWidth: 2062
Flags: W
LayerCount: 2
Back
SplineSet
0 1023 m 5
 922 1023 l 5
 922 -387 l 5
 0 -387 l 5
 0 1023 l 5
EndSplineSet
Fore
SplineSet
832 1328 m 25
 90 -690 l 17
-66 1275 m 1
 -18 1266 74 1180 120 1107 c 2
 236 945 l 2
 292 873 357 709 393 561 c 2
 492 156 l 2
 537 -28 610 -230 680 -309 c 2
 801 -446 l 2
 841 -490 897 -517 954 -543 c 9
EndSplineSet
EndChar

StartChar: psi
Encoding: 968 968 504
Width: 922
VWidth: 1947
Flags: W
LayerCount: 2
Fore
SplineSet
461 -386 m 5
 461 1049 l 21
790 973 m 4
 790 513 l 7
 790 261 672 50 461 50 c 7
 251 50 132 244 132 513 c 6
 132 973 l 5
EndSplineSet
EndChar

StartChar: omega
Encoding: 969 969 505
Width: 922
VWidth: 2334
Flags: W
LayerCount: 2
Back
SplineSet
0 -114 m 5
 0 1024 l 5
 922 1024 l 5
 922 -114 l 5
 0 -114 l 5
EndSplineSet
Fore
SplineSet
317 1166 m 17
 192 975 l 2
 142 905 142 815 142 734 c 10
 142 336 l 18
 142 198 201 50 288 50 c 10
 298 50 l 18
 396 50 461 84 461 215 c 10
 461 732 l 25
 461 215 l 18
 461 84 538 50 620 50 c 10
 630 50 l 18
 728 50 780 198 780 337 c 10
 780 734 l 18
 780 816 778 910 729 978 c 2
 605 1164 l 9
EndSplineSet
EndChar

StartChar: dieresiscmb
Encoding: 776 776 508
Width: 922
VWidth: 1947
Flags: W
HStem: 1296 176<199.799 344.825 577.758 721.701>
VStem: 187 171<1307.86 1461.32> 565 169<1308.08 1461.15>
LayerCount: 2
Fore
SplineSet
358 1386 m 0
 358 1339 319 1296 273 1296 c 0
 227 1296 187 1336 187 1386 c 0
 187 1438 229 1472 272 1472 c 0
 321 1472 358 1432 358 1386 c 0
734 1386 m 0
 734 1334 693 1296 650 1296 c 0
 605 1296 565 1337 565 1386 c 0
 565 1436 605 1472 650 1472 c 0
 691 1472 734 1438 734 1386 c 0
EndSplineSet
EndChar

StartChar: Djecyrillic
Encoding: 1026 1026 512
Width: 922
VWidth: 2334
Flags: W
LayerCount: 2
Fore
SplineSet
362 231 m 29
 362 417 l 22
 362 723 506 904 582 904 c 14
 600 904 l 22
 699 904 770 857 770 719 c 6
 770 336 l 6
 770 226 740 75 625 75 c 14
 607 75 l 29
362 1325 m 29
 362 0 l 29
70 1325 m 29
 742 1325 l 29
EndSplineSet
EndChar

StartChar: Ljecyrillic
Encoding: 1033 1033 513
Width: 922
VWidth: 1947
Flags: W
LayerCount: 2
Back
SplineSet
0 1425 m 5
 922 1425 l 5
 922 -100 l 5
 296 -100 l 5
 296 0 l 5
 0 0 l 5
 0 1425 l 5
EndSplineSet
Fore
SplineSet
117 -126 m 25
 222 1075 l 18
 231 1184 291 1325 333 1325 c 10
 472 1325 l 1
 472 75 l 1
 540 75 l 2
 729 75 810 158 810 337 c 2
 810 495 l 2
 810 676 720 797 540 797 c 2
 472 797 l 25
EndSplineSet
EndChar

StartChar: Njecyrillic
Encoding: 1034 1034 514
Width: 922
VWidth: 1947
Flags: W
LayerCount: 2
Fore
SplineSet
133 1400 m 29
 132 0 l 29
132 797 m 29
 540 797 l 6
 720 797 810 676 810 495 c 6
 810 337 l 6
 810 158 729 75 540 75 c 6
 472 75 l 5
 472 1400 l 5
EndSplineSet
EndChar

StartChar: Tshecyrillic
Encoding: 1035 1035 515
Width: 922
VWidth: 2334
Flags: W
LayerCount: 2
Fore
SplineSet
770 0 m 29
 770 719 l 22
 770 857 699 904 600 904 c 14
 582 904 l 22
 506 904 362 755 362 417 c 14
 362 231 l 29
362 1325 m 29
 362 0 l 29
70 1325 m 29
 742 1325 l 29
EndSplineSet
EndChar

StartChar: Dzhecyrillic
Encoding: 1039 1039 516
Width: 922
VWidth: 2334
Flags: W
LayerCount: 2
Fore
SplineSet
461 107 m 29
 461 -386 l 29
182 1400 m 29
 182 75 l 29
 740 75 l 21
 740 1400 l 13
EndSplineSet
EndChar

StartChar: djecyrillic
Encoding: 1106 1106 517
Width: 922
VWidth: 2334
Flags: W
LayerCount: 2
Fore
SplineSet
30 1185 m 25
 605 1185 l 25
331 -228 m 1
 365 -271 419 -294 475 -294 c 10
 526 -294 l 18
 660 -294 740 -170 740 -28 c 10
 740 553 l 18
 740 732 700 855 520 855 c 10
 502 855 l 18
 344 855 232 597 232 463 c 10
 232 0 l 25
 232 1424 l 25
EndSplineSet
EndChar

StartChar: dzhecyrillic
Encoding: 1119 1119 519
Width: 922
VWidth: 2334
Flags: W
LayerCount: 2
Fore
SplineSet
461 -386 m 25
 461 79 l 29
183 1023 m 25
 182 75 l 29
 740 75 l 29
 740 1023 l 25
EndSplineSet
EndChar

StartChar: ljecyrillic
Encoding: 1113 1113 520
Width: 922
VWidth: 1947
Flags: W
LayerCount: 2
Back
SplineSet
0 1048 m 5
 922 1048 l 5
 922 0 l 5
 0 0 l 5
 0 1048 l 5
EndSplineSet
Fore
SplineSet
123 -99 m 16
 165 615 l 2
 174 764 203 914 325 962 c 13
 463 962 l 29
 462 75 l 25
 600 75 l 18
 695 75 780 124 780 259 c 2
 780 337 l 2
 780 438 695 561 600 561 c 10
 462 561 l 25
EndSplineSet
EndChar

StartChar: njecyrillic
Encoding: 1114 1114 521
Width: 922
VWidth: 1947
Flags: W
LayerCount: 2
Fore
SplineSet
142 1024 m 25
 142 0 l 25
462 1024 m 25
 462 75 l 29
 600 75 l 22
 695 75 780 160 780 295 c 2
 780 373 l 2
 780 474 695 561 600 561 c 10
 462 561 l 25
 142 561 l 25
EndSplineSet
EndChar

StartChar: apostrophereverse
Encoding: 8219 8219 523
Width: 922
VWidth: 1708
Flags: W
LayerCount: 2
Fore
SplineSet
364 1328 m 17
 365 1196 383 1010 613 984 c 9
 628 1039 l 17
 559 1064 417 1161 520 1250 c 9
 364 1328 l 17
364.375 1328 m 0
 364.375 1276.25 404.125 1230.5 461.875 1230.5 c 0
 517.375 1230.5 558.625 1275.5 558.625 1328 c 0
 558.625 1379 520.375 1425.5 461.875 1425.5 c 0
 404.875 1425.5 364.375 1380.5 364.375 1328 c 0
EndSplineSet
EndChar

StartChar: arrowleft
Encoding: 8592 8592 526
Width: 922
VWidth: 1708
Flags: W
LayerCount: 2
Fore
SplineSet
922 -99 m 5
 50 -99 l 5
 50 1256 l 5
 922 1256 l 5
 922 -99 l 5
461 992 m 29
 90 600 l 29
 461 208 l 29
90 600 m 29
 872 600 l 29
EndSplineSet
EndChar

StartChar: arrowright
Encoding: 8594 8594 527
Width: 922
VWidth: 1708
Flags: MW
LayerCount: 2
Fore
SplineSet
0 -99 m 1
 0 1256 l 1
 872 1256 l 1
 872 -99 l 1
 0 -99 l 1
461 992 m 25
 832 600 l 25
 461 208 l 25
832 600 m 25
 50 600 l 25
EndSplineSet
EndChar

StartChar: lthorizform
Encoding: 9472 9472 528
Width: 922
Flags: W
LayerCount: 2
Fore
SplineSet
922 523 m 1
 -0 523 l 1
EndSplineSet
EndChar

StartChar: ltvertform
Encoding: 9474 9474 529
Width: 922
Flags: W
LayerCount: 2
Fore
SplineSet
461 1775 m 1
 461 -615 l 1
EndSplineSet
EndChar

StartChar: rightanglenw
Encoding: 9484 9484 530
Width: 922
Flags: W
LayerCount: 2
Fore
SplineSet
461 -615 m 1
 461 523 l 1
 922 523 l 1
EndSplineSet
EndChar

StartChar: rightanglene
Encoding: 9488 9488 531
Width: 922
Flags: W
LayerCount: 2
Fore
SplineSet
461 -615 m 1
 461 523 l 1
 -0 523 l 1
EndSplineSet
EndChar

StartChar: rightanglesw
Encoding: 9492 9492 532
Width: 922
Flags: W
LayerCount: 2
Fore
SplineSet
461 1775 m 5
 461 523 l 1
 922 523 l 1
EndSplineSet
EndChar

StartChar: rightanglese
Encoding: 9496 9496 533
Width: 922
Flags: W
LayerCount: 2
Fore
SplineSet
461 1775 m 5
 461 523 l 1
 -0 523 l 1
EndSplineSet
EndChar

StartChar: ltvertrightform
Encoding: 9500 9500 534
Width: 922
Flags: W
LayerCount: 2
Fore
SplineSet
461 1775 m 5
 461 -615 l 1
922 523 m 1
 461 523 l 1
EndSplineSet
EndChar

StartChar: ltvertleftform
Encoding: 9508 9508 535
Width: 922
Flags: W
LayerCount: 2
Fore
SplineSet
461 1775 m 5
 461 -615 l 1
461 523 m 1
 -0 523 l 1
EndSplineSet
EndChar

StartChar: ltdnhorizform
Encoding: 9516 9516 536
Width: 922
Flags: W
LayerCount: 2
Fore
SplineSet
461 523 m 1
 461 -615 l 1
922 523 m 1
 -0 523 l 1
EndSplineSet
EndChar

StartChar: ltuphorizform
Encoding: 9524 9524 537
Width: 922
Flags: W
LayerCount: 2
Fore
SplineSet
461 1775 m 5
 461 523 l 1
922 523 m 1
 -0 523 l 1
EndSplineSet
EndChar

StartChar: ltverthorizform
Encoding: 9532 9532 538
Width: 922
Flags: W
LayerCount: 2
Fore
SplineSet
461 1775 m 5
 461 -615 l 1
922 523 m 1
 -0 523 l 1
EndSplineSet
EndChar

StartChar: horizdblbar
Encoding: 9552 9552 539
Width: 922
Flags: W
LayerCount: 2
Fore
SplineSet
922 363 m 1
 0 363 l 1
922 715 m 1
 0 715 l 1
EndSplineSet
EndChar

StartChar: vertdblbar
Encoding: 9553 9553 540
Width: 922
Flags: W
LayerCount: 2
Fore
SplineSet
301 1775 m 5
 301 -615 l 1
621 1775 m 5
 621 -615 l 1
EndSplineSet
EndChar

StartChar: dnrtdblform
Encoding: 9554 9554 541
Width: 922
Flags: W
LayerCount: 2
Fore
SplineSet
922 363 m 1
 461 363 l 1
922 715 m 1
 461 715 l 1
 461 -615 l 1
EndSplineSet
EndChar

StartChar: dndblrtform
Encoding: 9555 9555 542
Width: 922
Flags: W
LayerCount: 2
Fore
SplineSet
301 -615 m 1
 301 523 l 1
 922 523 l 1
621 523 m 1
 621 -615 l 1
EndSplineSet
EndChar

StartChar: dbldnrtform
Encoding: 9556 9556 543
Width: 922
Flags: W
LayerCount: 2
Fore
SplineSet
922 363 m 1
 621 363 l 1
 621 -615 l 1
922 715 m 1
 301 715 l 1
 301 -615 l 1
EndSplineSet
EndChar

StartChar: dnleftdblform
Encoding: 9557 9557 544
Width: 922
Flags: W
LayerCount: 2
Fore
SplineSet
461 363 m 1
 0 363 l 1
0 715 m 1
 461 715 l 1
 461 -615 l 1
EndSplineSet
EndChar

StartChar: dndblleftform
Encoding: 9558 9558 545
Width: 922
Flags: W
LayerCount: 2
Fore
SplineSet
301 523 m 1
 301 -615 l 1
621 -615 m 1
 621 523 l 1
 -0 523 l 1
EndSplineSet
EndChar

StartChar: dbldnleftform
Encoding: 9559 9559 546
Width: 922
Flags: W
LayerCount: 2
Fore
SplineSet
0 363 m 1
 301 363 l 1
 301 -615 l 1
0 715 m 1
 621 715 l 1
 621 -615 l 1
EndSplineSet
EndChar

StartChar: uprtdblform
Encoding: 9560 9560 547
Width: 922
Flags: W
LayerCount: 2
Fore
SplineSet
922 363 m 1
 461 363 l 1
 461 1775 l 5
922 683 m 1
 461 683 l 1
EndSplineSet
EndChar

StartChar: updblrtform
Encoding: 9561 9561 548
Width: 922
Flags: W
LayerCount: 2
Fore
SplineSet
301 1775 m 5
 301 523 l 1
 922 523 l 1
621 1775 m 5
 621 523 l 1
EndSplineSet
EndChar

StartChar: dbluprtform
Encoding: 9562 9562 549
Width: 922
Flags: W
LayerCount: 2
Fore
SplineSet
922 363 m 1
 301 363 l 1
 301 1775 l 5
922 715 m 1
 621 715 l 1
 621 1775 l 5
EndSplineSet
EndChar

StartChar: upleftdblform
Encoding: 9563 9563 550
Width: 922
Flags: W
LayerCount: 2
Fore
SplineSet
0 363 m 1
 461 363 l 1
 461 1775 l 5
461 683 m 1
 0 683 l 1
EndSplineSet
EndChar

StartChar: updblleftform
Encoding: 9564 9564 551
Width: 922
Flags: W
LayerCount: 2
Fore
SplineSet
301 1775 m 5
 301 523 l 1
621 1775 m 5
 621 523 l 1
 -0 523 l 1
EndSplineSet
EndChar

StartChar: dblupleftform
Encoding: 9565 9565 552
Width: 922
Flags: W
LayerCount: 2
Fore
SplineSet
0 363 m 1
 621 363 l 1
 621 1775 l 5
0 715 m 1
 301 715 l 1
 301 1775 l 5
EndSplineSet
EndChar

StartChar: vertrtdblform
Encoding: 9566 9566 553
Width: 922
Flags: W
LayerCount: 2
Fore
SplineSet
922 363 m 1
 461 363 l 1
922 683 m 1
 461 683 l 1
461 1775 m 5
 461 -615 l 1
EndSplineSet
EndChar

StartChar: vertdblrtform
Encoding: 9567 9567 554
Width: 922
Flags: W
LayerCount: 2
Fore
SplineSet
301 1775 m 1
 301 -615 l 1
621 1775 m 1
 621 -615 l 1
922 523 m 1
 621 523 l 1
EndSplineSet
EndChar

StartChar: dblvertrtform
Encoding: 9568 9568 555
Width: 922
Flags: W
LayerCount: 2
Fore
SplineSet
922 363 m 1
 621 363 l 1
 621 -615 l 1
922 715 m 1
 621 715 l 1
 621 1775 l 5
301 1775 m 5
 301 -615 l 1
EndSplineSet
EndChar

StartChar: vertleftdblform
Encoding: 9569 9569 556
Width: 922
Flags: W
LayerCount: 2
Fore
SplineSet
461 363 m 1
 0 363 l 1
461 683 m 1
 0 683 l 1
461 1775 m 5
 461 -615 l 1
EndSplineSet
EndChar

StartChar: vertdblleftform
Encoding: 9570 9570 557
Width: 922
Flags: W
LayerCount: 2
Fore
SplineSet
301 1775 m 5
 301 -615 l 1
621 1775 m 5
 621 -615 l 1
301 523 m 1
 -0 523 l 1
EndSplineSet
EndChar

StartChar: dblvertleftform
Encoding: 9571 9571 558
Width: 922
Flags: W
LayerCount: 2
Fore
SplineSet
0 363 m 1
 301 363 l 1
 301 -615 l 1
0 715 m 1
 301 715 l 1
 301 1775 l 5
621 1775 m 5
 621 -615 l 1
EndSplineSet
EndChar

StartChar: dnhorizdblform
Encoding: 9572 9572 559
Width: 922
Flags: W
LayerCount: 2
Fore
SplineSet
922 363 m 1
 0 363 l 1
922 715 m 1
 0 715 l 1
461 363 m 1
 461 -615 l 1
EndSplineSet
EndChar

StartChar: dndblhorizform
Encoding: 9573 9573 560
Width: 922
Flags: W
LayerCount: 2
Fore
SplineSet
301 523 m 1
 301 -615 l 1
621 523 m 1
 621 -615 l 1
922 523 m 1
 0 523 l 1
EndSplineSet
EndChar

StartChar: dbldnhorizform
Encoding: 9574 9574 561
Width: 922
Flags: W
LayerCount: 2
Fore
SplineSet
922 363 m 1
 621 363 l 1
 621 -615 l 1
0 363 m 1
 301 363 l 1
 301 -615 l 1
922 715 m 1
 0 715 l 1
EndSplineSet
EndChar

StartChar: uphorizdblform
Encoding: 9575 9575 562
Width: 922
Flags: W
LayerCount: 2
Fore
SplineSet
922 363 m 1
 0 363 l 1
922 715 m 1
 0 715 l 1
461 1775 m 5
 461 715 l 1
EndSplineSet
EndChar

StartChar: updblhorizform
Encoding: 9576 9576 563
Width: 922
Flags: W
LayerCount: 2
Fore
SplineSet
301 1775 m 5
 301 523 l 1
621 1775 m 5
 621 523 l 1
922 523 m 1
 -0 523 l 1
EndSplineSet
EndChar

StartChar: dbluphorizform
Encoding: 9577 9577 564
Width: 922
Flags: W
LayerCount: 2
Fore
SplineSet
922 363 m 1
 0 363 l 1
922 715 m 1
 621 715 l 1
 621 1775 l 5
0 715 m 1
 301 715 l 1
 301 1775 l 5
EndSplineSet
EndChar

StartChar: verthorizdblform
Encoding: 9578 9578 565
Width: 922
Flags: W
LayerCount: 2
Fore
SplineSet
922 363 m 1
 0 363 l 1
922 715 m 1
 0 715 l 1
461 1775 m 1
 461 715 l 1
461 363 m 1
 461 -615 l 1
EndSplineSet
EndChar

StartChar: vertdblhorizform
Encoding: 9579 9579 566
Width: 922
Flags: W
LayerCount: 2
Fore
SplineSet
301 1775 m 1
 301 -615 l 1
621 1775 m 1
 621 -615 l 1
922 523 m 1
 621 523 l 1
301 523 m 1
 -0 523 l 1
EndSplineSet
EndChar

StartChar: dblverthorizform
Encoding: 9580 9580 567
Width: 922
Flags: W
LayerCount: 2
Fore
SplineSet
922 363 m 1
 621 363 l 1
 621 -615 l 1
0 363 m 1
 301 363 l 1
 301 -615 l 1
922 715 m 1
 621 715 l 1
 621 1775 l 5
0 715 m 1
 301 715 l 1
 301 1775 l 5
EndSplineSet
EndChar

StartChar: upblock
Encoding: 9600 9600 568
Width: 922
Flags: W
VStem: -0 922<523 1775>
LayerCount: 2
Fore
SplineSet
922 523 m 1
 -0 523 l 1
 0 1775 l 5
 922 1775 l 5
 922 523 l 1
EndSplineSet
EndChar

StartChar: dnblock
Encoding: 9604 9604 569
Width: 922
Flags: W
HStem: -615 1138<0 922>
VStem: -0 922<-615 523>
LayerCount: 2
Fore
SplineSet
922 -615 m 1
 -0 -615 l 1
 -0 523 l 1
 922 523 l 1
 922 -615 l 1
EndSplineSet
Validated: 3073
EndChar

StartChar: block
Encoding: 9608 9608 570
Width: 922
Flags: W
VStem: -0 922<-615 1775>
LayerCount: 2
Fore
SplineSet
-0 -615 m 1
 0 1775 l 5
 922 1775 l 5
 922 -615 l 1
 -0 -615 l 1
EndSplineSet
EndChar

StartChar: lfblock
Encoding: 9612 9612 571
Width: 922
Flags: W
VStem: -0 461<-615 1775>
LayerCount: 2
Fore
SplineSet
-0 -615 m 1
 0 1775 l 5
 461 1775 l 5
 461 -615 l 1
 -0 -615 l 1
EndSplineSet
EndChar

StartChar: rtblock
Encoding: 9616 9616 572
Width: 922
Flags: W
VStem: 461 461<-615 1775>
LayerCount: 2
Fore
SplineSet
461 -615 m 1
 461 1775 l 1
 922 1775 l 1
 922 -615 l 1
 461 -615 l 1
EndSplineSet
EndChar

StartChar: shadelight
Encoding: 9617 9617 573
Width: 922
Flags: W
HStem: -514 100<153 230 461 540 769 846> -315 100<0 77 307 385 616 693> -115 99<153 230 461 540 769 846> 83 100<0 77 307 385 616 693> 283 99<153 230 461 540 769 846> 482 99<0 77 307 385 616 693> 681 100<153 230 461 540 769 846> 881 99<0 77 307 385 616 693> 1080 99<153 230 461 540 769 846> 1278 100<0 77 307 385 616 693> 1477 100<153 230 461 540 769 846> 1677 98<0 77 307 385 616 693>
VStem: 0 77<-315 -215 83 183 482 581 881 980 1278 1378 1677 1775> 153 77<-514 -414 -115 -16 283 382 681 781 1080 1179 1477 1577> 307 78<-315 -215 83 183 482 581 881 980 1278 1378 1677 1775> 461 79<-514 -414 -115 -16 283 382 681 781 1080 1179 1477 1577> 616 77<-315 -215 83 183 482 581 881 980 1278 1378 1677 1775> 769 77<-514 -414 -115 -16 283 382 681 781 1080 1179 1477 1577>
LayerCount: 2
Fore
SplineSet
0 1378 m 1
 77 1378 l 1
 77 1278 l 1
 0 1278 l 1
 0 1378 l 1
307 1378 m 1
 385 1378 l 1
 385 1278 l 1
 307 1278 l 1
 307 1378 l 1
616 1378 m 1
 693 1378 l 1
 693 1278 l 1
 616 1278 l 1
 616 1378 l 1
153 1179 m 1
 230 1179 l 1
 230 1080 l 1
 153 1080 l 1
 153 1179 l 1
461 1179 m 1
 540 1179 l 1
 540 1080 l 1
 461 1080 l 1
 461 1179 l 1
769 1179 m 1
 846 1179 l 1
 846 1080 l 1
 769 1080 l 1
 769 1179 l 1
616 980 m 1
 693 980 l 1
 693 881 l 1
 616 881 l 1
 616 980 l 1
307 980 m 1
 385 980 l 1
 385 881 l 1
 307 881 l 1
 307 980 l 1
0 980 m 1
 77 980 l 1
 77 881 l 1
 0 881 l 1
 0 980 l 1
769 781 m 1
 846 781 l 1
 846 681 l 1
 769 681 l 1
 769 781 l 1
461 781 m 1
 540 781 l 1
 540 681 l 1
 461 681 l 1
 461 781 l 1
153 781 m 1
 230 781 l 1
 230 681 l 1
 153 681 l 1
 153 781 l 1
0 581 m 1
 77 581 l 1
 77 482 l 1
 0 482 l 1
 0 581 l 1
307 581 m 1
 385 581 l 1
 385 482 l 1
 307 482 l 1
 307 581 l 1
616 581 m 1
 693 581 l 1
 693 482 l 1
 616 482 l 1
 616 581 l 1
769 382 m 1
 846 382 l 1
 846 283 l 1
 769 283 l 1
 769 382 l 1
461 382 m 1
 540 382 l 1
 540 283 l 1
 461 283 l 1
 461 382 l 1
153 382 m 1
 230 382 l 1
 230 283 l 1
 153 283 l 1
 153 382 l 1
0 183 m 1
 77 183 l 1
 77 83 l 1
 0 83 l 1
 0 183 l 1
307 183 m 1
 385 183 l 1
 385 83 l 1
 307 83 l 1
 307 183 l 1
616 183 m 1
 693 183 l 1
 693 83 l 1
 616 83 l 1
 616 183 l 1
153 -16 m 1
 230 -16 l 1
 230 -115 l 1
 153 -115 l 1
 153 -16 l 1
461 -16 m 1
 540 -16 l 1
 540 -115 l 1
 461 -115 l 1
 461 -16 l 1
769 -16 m 1
 846 -16 l 1
 846 -115 l 1
 769 -115 l 1
 769 -16 l 1
616 -215 m 1
 693 -215 l 1
 693 -315 l 1
 616 -315 l 1
 616 -215 l 1
307 -215 m 1
 385 -215 l 1
 385 -315 l 1
 307 -315 l 1
 307 -215 l 1
0 -215 m 1
 77 -215 l 1
 77 -315 l 1
 0 -315 l 1
 0 -215 l 1
153 -414 m 1
 230 -414 l 1
 230 -514 l 1
 153 -514 l 1
 153 -414 l 1
461 -414 m 1
 540 -414 l 1
 540 -514 l 1
 461 -514 l 1
 461 -414 l 1
769 -414 m 1
 846 -414 l 1
 846 -514 l 1
 769 -514 l 1
 769 -414 l 1
153 1577 m 1
 230 1577 l 1
 230 1477 l 1
 153 1477 l 1
 153 1577 l 1
461 1577 m 1
 540 1577 l 1
 540 1477 l 1
 461 1477 l 1
 461 1577 l 1
769 1577 m 1
 846 1577 l 1
 846 1477 l 1
 769 1477 l 1
 769 1577 l 1
0 1775 m 1
 77 1775 l 1
 77 1677 l 1
 0 1677 l 1
 0 1775 l 1
307 1775 m 1
 385 1775 l 1
 385 1677 l 1
 307 1677 l 1
 307 1775 l 1
616 1775 m 1
 693 1775 l 1
 693 1677 l 1
 616 1677 l 1
 616 1775 l 1
EndSplineSet
EndChar

StartChar: shademedium
Encoding: 9618 9618 574
Width: 922
Flags: W
HStem: -514 100<0 77 153 230 307 384 461 539 616 692 769 846> -315 100<77 153 230 307 384 461 539 616 692 769 846 922> -115 99<0 77 153 230 307 384 461 539 616 692 769 846> 83 100<77 153 230 307 384 461 539 616 692 769 846 922> 283 99<0 77 153 230 307 384 461 539 616 692 769 846> 482 99<77 153 230 307 384 461 539 616 692 769 846 922> 681 100<0 77 153 230 307 384 461 539 616 692 769 846> 881 99<77 153 230 307 384 461 539 616 692 769 846 922> 1080 99<0 77 153 230 307 384 461 539 616 692 769 846> 1278 100<77 153 230 307 384 461 539 616 692 769 846 922> 1477 100<0 77 153 230 307 384 461 539 616 692 769 846> 1677 98<77 153 230 307 384 461 539 616 692 769 846 922>
VStem: 0 77<-514 -414 -115 -16 283 382 681 781 1080 1179 1477 1577> 77 76<-315 -215 83 183 482 581 881 980 1278 1378 1677 1775> 153 77<-514 -414 -115 -16 283 382 681 781 1080 1179 1477 1577> 230 77<-315 -215 83 183 482 581 881 980 1278 1378 1677 1775> 307 77<-514 -414 -115 -16 283 382 681 781 1080 1179 1477 1577> 384 77<-315 -215 83 183 482 581 881 980 1278 1378 1677 1775> 461 78<-514 -414 -115 -16 283 382 681 781 1080 1179 1477 1577> 539 77<-315 -215 83 183 482 581 881 980 1278 1378 1677 1775> 616 76<-514 -414 -115 -16 283 382 681 781 1080 1179 1477 1577> 692 77<-315 -215 83 183 482 581 881 980 1278 1378 1677 1775> 769 77<-514 -414 -115 -16 283 382 681 781 1080 1179 1477 1577> 846 76<-315 -215 83 183 482 581 881 980 1278 1378 1677 1775>
LayerCount: 2
Fore
SplineSet
77 1378 m 1
 153 1378 l 1
 153 1278 l 1
 77 1278 l 1
 77 1378 l 1
230 1378 m 1
 307 1378 l 1
 307 1278 l 1
 230 1278 l 1
 230 1378 l 1
384 1378 m 1
 461 1378 l 1
 461 1278 l 1
 384 1278 l 1
 384 1378 l 1
539 1378 m 1
 616 1378 l 1
 616 1278 l 1
 539 1278 l 1
 539 1378 l 1
692 1378 m 1
 769 1378 l 1
 769 1278 l 1
 692 1278 l 1
 692 1378 l 1
846 1378 m 1
 922 1378 l 1
 922 1278 l 1
 846 1278 l 1
 846 1378 l 1
0 1179 m 1
 77 1179 l 1
 77 1080 l 1
 0 1080 l 1
 0 1179 l 1
153 1179 m 1
 230 1179 l 1
 230 1080 l 1
 153 1080 l 1
 153 1179 l 1
307 1179 m 1
 384 1179 l 1
 384 1080 l 1
 307 1080 l 1
 307 1179 l 1
461 1179 m 1
 539 1179 l 1
 539 1080 l 1
 461 1080 l 1
 461 1179 l 1
616 1179 m 1
 692 1179 l 1
 692 1080 l 1
 616 1080 l 1
 616 1179 l 1
769 1179 m 1
 846 1179 l 1
 846 1080 l 1
 769 1080 l 1
 769 1179 l 1
77 980 m 1
 153 980 l 1
 153 881 l 1
 77 881 l 1
 77 980 l 1
230 980 m 1
 307 980 l 1
 307 881 l 1
 230 881 l 1
 230 980 l 1
384 980 m 1
 461 980 l 1
 461 881 l 1
 384 881 l 1
 384 980 l 1
539 980 m 1
 616 980 l 1
 616 881 l 1
 539 881 l 1
 539 980 l 1
692 980 m 1
 769 980 l 1
 769 881 l 1
 692 881 l 1
 692 980 l 1
846 980 m 1
 922 980 l 1
 922 881 l 1
 846 881 l 1
 846 980 l 1
0 781 m 1
 77 781 l 1
 77 681 l 1
 0 681 l 1
 0 781 l 1
153 781 m 1
 230 781 l 1
 230 681 l 1
 153 681 l 1
 153 781 l 1
307 781 m 1
 384 781 l 1
 384 681 l 1
 307 681 l 1
 307 781 l 1
461 781 m 1
 539 781 l 1
 539 681 l 1
 461 681 l 1
 461 781 l 1
616 781 m 1
 692 781 l 1
 692 681 l 1
 616 681 l 1
 616 781 l 1
769 781 m 1
 846 781 l 1
 846 681 l 1
 769 681 l 1
 769 781 l 1
77 581 m 1
 153 581 l 1
 153 482 l 1
 77 482 l 1
 77 581 l 1
230 581 m 1
 307 581 l 1
 307 482 l 1
 230 482 l 1
 230 581 l 1
384 581 m 1
 461 581 l 1
 461 482 l 1
 384 482 l 1
 384 581 l 1
539 581 m 1
 616 581 l 1
 616 482 l 1
 539 482 l 1
 539 581 l 1
692 581 m 1
 769 581 l 1
 769 482 l 1
 692 482 l 1
 692 581 l 1
846 581 m 1
 922 581 l 1
 922 482 l 1
 846 482 l 1
 846 581 l 1
0 382 m 1
 77 382 l 1
 77 283 l 1
 0 283 l 1
 0 382 l 1
307 382 m 1
 384 382 l 1
 384 283 l 1
 307 283 l 1
 307 382 l 1
461 382 m 1
 539 382 l 1
 539 283 l 1
 461 283 l 1
 461 382 l 1
616 382 m 1
 692 382 l 1
 692 283 l 1
 616 283 l 1
 616 382 l 1
769 382 m 1
 846 382 l 1
 846 283 l 1
 769 283 l 1
 769 382 l 1
153 382 m 1
 230 382 l 1
 230 283 l 1
 153 283 l 1
 153 382 l 1
846 183 m 1
 922 183 l 1
 922 83 l 1
 846 83 l 1
 846 183 l 1
692 183 m 1
 769 183 l 1
 769 83 l 1
 692 83 l 1
 692 183 l 1
539 183 m 1
 616 183 l 1
 616 83 l 1
 539 83 l 1
 539 183 l 1
384 183 m 1
 461 183 l 1
 461 83 l 1
 384 83 l 1
 384 183 l 1
230 183 m 1
 307 183 l 1
 307 83 l 1
 230 83 l 1
 230 183 l 1
77 183 m 1
 153 183 l 1
 153 83 l 1
 77 83 l 1
 77 183 l 1
0 -16 m 1
 77 -16 l 1
 77 -115 l 1
 0 -115 l 1
 0 -16 l 1
153 -16 m 1
 230 -16 l 1
 230 -115 l 1
 153 -115 l 1
 153 -16 l 1
307 -16 m 1
 384 -16 l 1
 384 -115 l 1
 307 -115 l 1
 307 -16 l 1
461 -16 m 1
 539 -16 l 1
 539 -115 l 1
 461 -115 l 1
 461 -16 l 1
616 -16 m 1
 692 -16 l 1
 692 -115 l 1
 616 -115 l 1
 616 -16 l 1
769 -16 m 1
 846 -16 l 1
 846 -115 l 1
 769 -115 l 1
 769 -16 l 1
846 -215 m 1
 922 -215 l 1
 922 -315 l 1
 846 -315 l 1
 846 -215 l 1
692 -215 m 1
 769 -215 l 1
 769 -315 l 1
 692 -315 l 1
 692 -215 l 1
539 -215 m 1
 616 -215 l 1
 616 -315 l 1
 539 -315 l 1
 539 -215 l 1
384 -215 m 1
 461 -215 l 1
 461 -315 l 1
 384 -315 l 1
 384 -215 l 1
230 -215 m 1
 307 -215 l 1
 307 -315 l 1
 230 -315 l 1
 230 -215 l 1
77 -215 m 1
 153 -215 l 1
 153 -315 l 1
 77 -315 l 1
 77 -215 l 1
0 -414 m 1
 77 -414 l 1
 77 -514 l 1
 0 -514 l 1
 0 -414 l 1
153 -414 m 1
 230 -414 l 1
 230 -514 l 1
 153 -514 l 1
 153 -414 l 1
307 -414 m 1
 384 -414 l 1
 384 -514 l 1
 307 -514 l 1
 307 -414 l 1
461 -414 m 1
 539 -414 l 1
 539 -514 l 1
 461 -514 l 1
 461 -414 l 1
616 -414 m 1
 692 -414 l 1
 692 -514 l 1
 616 -514 l 1
 616 -414 l 1
769 -414 m 1
 846 -414 l 1
 846 -514 l 1
 769 -514 l 1
 769 -414 l 1
0 1577 m 1
 77 1577 l 1
 77 1477 l 1
 0 1477 l 1
 0 1577 l 1
153 1577 m 1
 230 1577 l 1
 230 1477 l 1
 153 1477 l 1
 153 1577 l 1
307 1577 m 1
 384 1577 l 1
 384 1477 l 1
 307 1477 l 1
 307 1577 l 1
461 1577 m 1
 539 1577 l 1
 539 1477 l 1
 461 1477 l 1
 461 1577 l 1
616 1577 m 1
 692 1577 l 1
 692 1477 l 1
 616 1477 l 1
 616 1577 l 1
769 1577 m 1
 846 1577 l 1
 846 1477 l 1
 769 1477 l 1
 769 1577 l 1
77 1775 m 1
 153 1775 l 1
 153 1677 l 1
 77 1677 l 1
 77 1775 l 1
230 1775 m 1
 307 1775 l 1
 307 1677 l 1
 230 1677 l 1
 230 1775 l 1
384 1775 m 1
 461 1775 l 1
 461 1677 l 1
 384 1677 l 1
 384 1775 l 1
539 1775 m 1
 616 1775 l 1
 616 1677 l 1
 539 1677 l 1
 539 1775 l 1
692 1775 m 1
 769 1775 l 1
 769 1677 l 1
 692 1677 l 1
 692 1775 l 1
846 1775 m 1
 922 1775 l 1
 922 1677 l 1
 846 1677 l 1
 846 1775 l 1
EndSplineSet
EndChar

StartChar: shadedark
Encoding: 9619 9619 575
Width: 922
Flags: W
HStem: -615 300<0 77 153 230 307 384 461 539 616 692 769 846> -615 101<77 153 230 307 384 461 539 616 692 769 846 922> -414 299<77 153 230 307 384 461 539 616 692 769 846 922> -215 299<0 77 153 230 307 384 461 539 616 692 769 846> -16 299<77 153 230 307 384 461 539 616 692 769 846 922> 183 299<0 77 153 230 307 384 461 539 616 692 769 846> 382 299<77 153 230 307 384 461 539 616 692 769 846 922> 581 299<0 77 153 230 307 384 461 539 616 692 769 846> 781 299<77 153 230 307 384 461 539 616 692 769 846 922> 980 299<0 77 153 230 307 384 461 539 616 692 769 846> 1179 299<77 153 230 307 384 461 539 616 692 769 846 922> 1378 299<0 77 153 230 307 384 461 539 616 692 769 846> 1577 198<77 153 230 307 384 461 539 616 692 769 846 922>
VStem: 0 77<-514 -414 -115 -16 283 382 681 781 1080 1179 1478 1577> 77 76<-315 -215 84 183 482 581 881 980 1279 1378 1677 1775> 153 77<-514 -414 -115 -16 283 382 681 781 1080 1179 1478 1577> 230 77<-315 -215 84 183 482 581 880 980 1279 1378 1677 1775> 307 77<-514 -414 -115 -16 283 382 681 781 1080 1179 1478 1577> 384 77<-315 -215 84 183 482 581 880 980 1279 1378 1677 1775> 461 78<-514 -414 -115 -16 283 382 681 781 1080 1179 1478 1577> 539 77<-315 -215 84 183 482 581 880 980 1279 1378 1677 1775> 616 76<-514 -414 -115 -16 283 382 681 781 1080 1179 1478 1577> 692 77<-315 -215 84 183 482 581 880 980 1279 1378 1677 1775> 769 77<-514 -414 -115 -16 283 382 681 781 1080 1179 1478 1577> 846 76<-315 -215 84 183 482 581 880 980 1279 1378 1677 1775>
LayerCount: 2
Fore
SplineSet
922 1577 m 1x000fff80
 846 1577 l 1
 846 1478 l 1
 922 1478 l 1
 922 1179 l 1
 846 1179 l 1
 846 1080 l 1
 922 1080 l 1
 922 781 l 1
 846 781 l 1
 846 681 l 1
 922 681 l 1
 922 382 l 1
 846 382 l 1
 846 283 l 1
 922 283 l 1
 922 -16 l 1
 846 -16 l 1
 846 -115 l 1
 922 -115 l 1
 922 -414 l 1
 846 -414 l 1
 846 -514 l 1
 922 -514 l 1
 922 -615 l 1x6aafff80
 0 -615 l 1
 0 -315 l 1
 77 -315 l 1
 77 -215 l 1
 0 -215 l 1
 0 83 l 1
 77 83 l 1
 77 183 l 1
 0 183 l 1
 0 482 l 1
 77 482 l 1
 77 581 l 1
 0 581 l 1
 0 881 l 1
 77 881 l 1
 77 980 l 1
 0 980 l 1
 0 1279 l 1
 77 1279 l 1
 77 1378 l 1
 0 1378 l 1
 0 1677 l 1
 77 1677 l 1x9557ff80
 77 1775 l 1
 153 1775 l 1x000fff80
 153 1677 l 1
 230 1677 l 1x0017ff80
 230 1775 l 1
 307 1775 l 1x000fff80
 307 1677 l 1
 384 1677 l 1x0017ff80
 384 1775 l 1
 461 1775 l 1x000fff80
 461 1677 l 1
 539 1677 l 1x0017ff80
 539 1775 l 1
 616 1775 l 1x000fff80
 616 1677 l 1
 692 1677 l 1x0017ff80
 692 1775 l 1
 769 1775 l 1x000fff80
 769 1677 l 1
 846 1677 l 1x0017ff80
 846 1775 l 1
 922 1775 l 1
 922 1577 l 1x000fff80
77 1179 m 1
 77 1080 l 1
 153 1080 l 1
 153 1179 l 1
 77 1179 l 1
230 1179 m 1
 230 1080 l 1
 307 1080 l 1
 307 1179 l 1
 230 1179 l 1
384 1179 m 1
 384 1080 l 1
 461 1080 l 1
 461 1179 l 1
 384 1179 l 1
539 1179 m 1
 539 1080 l 1
 616 1080 l 1
 616 1179 l 1
 539 1179 l 1
692 1179 m 1
 692 1080 l 1
 769 1080 l 1
 769 1179 l 1
 692 1179 l 1
846 980 m 1x0147ff80
 769 980 l 1
 769 880 l 1
 846 880 l 1
 846 980 l 1x0147ff80
692 980 m 1
 616 980 l 1
 616 880 l 1
 692 880 l 1
 692 980 l 1
539 980 m 1
 461 980 l 1
 461 880 l 1
 539 880 l 1
 539 980 l 1
384 980 m 1
 307 980 l 1
 307 880 l 1
 384 880 l 1
 384 980 l 1
230 980 m 1
 153 980 l 1
 153 880 l 1
 230 880 l 1
 230 980 l 1
77 781 m 1x0287ff80
 77 681 l 1
 153 681 l 1
 153 781 l 1
 77 781 l 1x0287ff80
230 781 m 1
 230 681 l 1
 307 681 l 1
 307 781 l 1
 230 781 l 1
384 781 m 1
 384 681 l 1
 461 681 l 1
 461 781 l 1
 384 781 l 1
539 781 m 1
 539 681 l 1
 616 681 l 1
 616 781 l 1
 539 781 l 1
692 781 m 1
 692 681 l 1
 769 681 l 1
 769 781 l 1
 692 781 l 1
230 581 m 1x0507ff80
 153 581 l 1
 153 482 l 1
 230 482 l 1
 230 581 l 1x0507ff80
307 581 m 1
 307 482 l 1
 384 482 l 1
 384 581 l 1
 307 581 l 1
461 581 m 1
 461 482 l 1
 539 482 l 1
 539 581 l 1
 461 581 l 1
616 581 m 1
 616 482 l 1
 692 482 l 1
 692 581 l 1
 616 581 l 1
769 581 m 1
 769 482 l 1
 846 482 l 1
 846 581 l 1
 769 581 l 1
77 382 m 1x0a07ff80
 77 283 l 1
 153 283 l 1
 153 382 l 1
 77 382 l 1x0a07ff80
384 382 m 1
 384 283 l 1
 461 283 l 1
 461 382 l 1
 384 382 l 1
307 283 m 1
 307 382 l 1
 230 382 l 1
 230 283 l 1
 307 283 l 1
539 382 m 1
 539 283 l 1
 616 283 l 1
 616 382 l 1
 539 382 l 1
692 382 m 1
 692 283 l 1
 769 283 l 1
 769 382 l 1
 692 382 l 1
846 84 m 1x1407ff80
 846 183 l 1
 769 183 l 1
 769 84 l 1
 846 84 l 1x1407ff80
692 84 m 1
 692 183 l 1
 616 183 l 1
 616 84 l 1
 692 84 l 1
539 84 m 1
 539 183 l 1
 461 183 l 1
 461 84 l 1
 539 84 l 1
384 84 m 1
 384 183 l 1
 307 183 l 1
 307 84 l 1
 384 84 l 1
230 84 m 1
 230 183 l 1
 153 183 l 1
 153 84 l 1
 230 84 l 1
77 -16 m 1x2807ff80
 77 -115 l 1
 153 -115 l 1
 153 -16 l 1
 77 -16 l 1x2807ff80
230 -16 m 1
 230 -115 l 1
 307 -115 l 1
 307 -16 l 1
 230 -16 l 1
384 -16 m 1
 384 -115 l 1
 461 -115 l 1
 461 -16 l 1
 384 -16 l 1
539 -16 m 1
 539 -115 l 1
 616 -115 l 1
 616 -16 l 1
 539 -16 l 1
692 -16 m 1
 692 -115 l 1
 769 -115 l 1
 769 -16 l 1
 692 -16 l 1
846 -315 m 1x9007ff80
 846 -215 l 1
 769 -215 l 1
 769 -315 l 1
 846 -315 l 1x9007ff80
692 -315 m 1
 692 -215 l 1
 616 -215 l 1
 616 -315 l 1
 692 -315 l 1
539 -315 m 1
 539 -215 l 1
 461 -215 l 1
 461 -315 l 1
 539 -315 l 1
384 -315 m 1
 384 -215 l 1
 307 -215 l 1
 307 -315 l 1
 384 -315 l 1
230 -315 m 1
 230 -215 l 1
 153 -215 l 1
 153 -315 l 1
 230 -315 l 1
77 -414 m 1x6007ff80
 77 -514 l 1
 153 -514 l 1
 153 -414 l 1
 77 -414 l 1x6007ff80
230 -414 m 1
 230 -514 l 1
 307 -514 l 1
 307 -414 l 1
 230 -414 l 1
384 -414 m 1
 384 -514 l 1
 461 -514 l 1
 461 -414 l 1
 384 -414 l 1
539 -414 m 1
 539 -514 l 1
 616 -514 l 1
 616 -414 l 1
 539 -414 l 1
692 -414 m 1
 692 -514 l 1
 769 -514 l 1
 769 -414 l 1
 692 -414 l 1
846 1378 m 1x0057ff80
 769 1378 l 1
 769 1279 l 1
 846 1279 l 1
 846 1378 l 1x0057ff80
692 1378 m 1
 616 1378 l 1
 616 1279 l 1
 692 1279 l 1
 692 1378 l 1
539 1378 m 1
 461 1378 l 1
 461 1279 l 1
 539 1279 l 1
 539 1378 l 1
384 1378 m 1
 307 1378 l 1
 307 1279 l 1
 384 1279 l 1
 384 1378 l 1
230 1378 m 1
 153 1378 l 1
 153 1279 l 1
 230 1279 l 1
 230 1378 l 1
769 1577 m 1x002fff80
 692 1577 l 1
 692 1478 l 1
 769 1478 l 1
 769 1577 l 1x002fff80
616 1577 m 1
 539 1577 l 1
 539 1478 l 1
 616 1478 l 1
 616 1577 l 1
461 1577 m 1
 384 1577 l 1
 384 1478 l 1
 461 1478 l 1
 461 1577 l 1
307 1577 m 1
 230 1577 l 1
 230 1478 l 1
 307 1478 l 1
 307 1577 l 1
153 1577 m 1
 77 1577 l 1
 77 1478 l 1
 153 1478 l 1
 153 1577 l 1
EndSplineSet
EndChar

StartChar: blacksquare
Encoding: 9632 9632 576
Width: 922
Flags: W
HStem: 84 1057<0 922>
VStem: 0 922<84 1141>
LayerCount: 2
Fore
SplineSet
0 1141 m 5
 922 1141 l 5
 922 84 l 5
 0 84 l 5
 0 1141 l 5
EndSplineSet
EndChar

StartChar: whitesquare
Encoding: 9633 9633 577
Width: 922
Flags: W
HStem: 84 224<187 734> 949 192<187 734>
VStem: 0 187<308 949> 734 188<308 949>
LayerCount: 2
Fore
SplineSet
0 1141 m 1
 922 1141 l 1
 922 84 l 1
 0 84 l 1
 0 1141 l 1
187 949 m 1
 187 308 l 1
 734 308 l 1
 734 949 l 1
 187 949 l 1
EndSplineSet
EndChar

StartChar: blacksmallsquare
Encoding: 9642 9642 578
Width: 922
Flags: W
HStem: 400.365 472.271<224.175 696.825>
VStem: 224.175 472.65<400.365 872.635>
LayerCount: 2
Fore
SplineSet
697 400 m 5
 224 400 l 5
 224 873 l 5
 697 873 l 5
 697 400 l 5
EndSplineSet
EndChar

StartChar: whitesmallsquare
Encoding: 9643 9643 579
Width: 922
Flags: W
HStem: 400.365 113.926<341.925 579.075> 758.709 113.926<341.925 579.075>
VStem: 224.175 117.75<514.291 758.709> 579.075 117.75<514.291 758.709>
LayerCount: 2
Fore
SplineSet
697 400 m 1
 224 400 l 1
 224 873 l 1
 697 873 l 1
 697 400 l 1
579 514 m 1
 579 759 l 1
 342 759 l 1
 342 514 l 1
 579 514 l 1
EndSplineSet
EndChar

StartChar: blackrectangle
Encoding: 9644 9644 580
Width: 922
Flags: W
HStem: 395 231<0 922>
LayerCount: 2
Fore
SplineSet
0 626 m 1
 922 626 l 5
 922 395 l 5
 0 395 l 1
 0 626 l 1
EndSplineSet
Validated: 3073
EndChar

StartChar: triagup
Encoding: 9650 9650 581
Width: 922
Flags: W
LayerCount: 2
Fore
SplineSet
0 82 m 5
 460 946 l 5
 922 82 l 5
 0 82 l 5
EndSplineSet
EndChar

StartChar: triagrt
Encoding: 9658 9658 582
Width: 922
Flags: W
LayerCount: 2
Fore
SplineSet
63 -63 m 1
 61 892 l 1
 861 398 l 1
 63 -63 l 1
EndSplineSet
EndChar

StartChar: triagdn
Encoding: 9660 9660 583
Width: 922
Flags: W
LayerCount: 2
Fore
SplineSet
922 946 m 5
 462 82 l 5
 0 946 l 5
 922 946 l 5
EndSplineSet
EndChar

StartChar: triaglf
Encoding: 9668 9668 584
Width: 922
Flags: W
LayerCount: 2
Fore
SplineSet
62 398 m 5
 860 893 l 5
 860 -63 l 5
 62 398 l 5
EndSplineSet
EndChar

StartChar: lozenge
Encoding: 9674 9674 585
Width: 922
Flags: W
DStem2: 261 710 89 709 0.489251 -0.872143<0 400.76> 89 709 261 710 0.486669 0.873586<84.5807 485.336> 501 1287 458 1059 0.499203 -0.866485<176.093 577.838> 458 361 501 135 0.501808 0.864979<0 401.737>
LayerCount: 2
Fore
SplineSet
501 1319 m 1
 834 741 l 1
 501 103 l 1
 411 103 l 1
 89 741 l 1
 411 1319 l 1
 501 1319 l 1
458 1059 m 1
 261 742 l 1
 458 361 l 1
 657 742 l 1
 458 1059 l 1
EndSplineSet
EndChar

StartChar: whitecircle
Encoding: 9675 9675 586
Width: 922
Flags: W
HStem: 221 150<334.35 586.595> 784 150<333.91 587.132>
VStem: 104 150<452.439 703.668> 668 150<451.815 701.975>
LayerCount: 2
Fore
SplineSet
461 966 m 0
 663 966 818 770 818 578 c 0
 818 377 658 189 461 189 c 0
 258 189 104 381 104 578 c 0
 104 763 251 966 461 966 c 0
461 784 m 0
 341 784 254 688 254 578 c 0
 254 453 355 371 461 371 c 256
 577 371 668 463 668 578 c 0
 668 683 584 784 461 784 c 0
EndSplineSet
EndChar

StartChar: blackcircle
Encoding: 9679 9679 587
Width: 922
Flags: W
HStem: 221 713<292.824 631.094>
VStem: 104 714<407.906 745.646>
LayerCount: 2
Fore
SplineSet
461 966 m 0
 663 966 818 770 818 578 c 0
 818 377 658 189 461 189 c 0
 258 189 104 381 104 578 c 0
 104 763 251 966 461 966 c 0
EndSplineSet
EndChar

StartChar: bulletinverse
Encoding: 9688 9688 588
Width: 922
Flags: W
HStem: 93.0996 233.28<349.727 573.114> 653.62 233.28<348.385 573.674>
VStem: 63 234<377.921 601.629> 624 233<379.634 603.318>
LayerCount: 2
Fore
SplineSet
63 62 m 1
 63 919 l 1
 857 919 l 1
 857 62 l 1
 63 62 l 1
460 654 m 256
 373 654 297 585 297 490 c 0
 297 395 376 327 460 327 c 0
 551 327 624 399 624 490 c 0
 624 582 552 654 460 654 c 256
EndSplineSet
EndChar

StartChar: whitecircleinverse
Encoding: 9689 9689 589
Width: 922
Flags: W
HStem: 110 111<289.809 635.959> 371 413<335.607 588.433> 934 111<293.797 632.866>
VStem: 0 105<406.695 749.753> 255 413<448.029 702.431> 818 104<402.264 747.094>
LayerCount: 2
Fore
SplineSet
0 78 m 1
 0 1045 l 1
 922 1045 l 1
 922 78 l 1
 0 78 l 1
461 966 m 0
 270 966 105 780 105 577 c 0
 105 379 261 189 461 189 c 0
 652 189 818 369 818 577 c 0
 818 774 662 966 461 966 c 0
462 784 m 0
 577 784 668 691 668 577 c 0
 668 459 574 371 462 371 c 0
 349 371 255 459 255 577 c 0
 255 695 351 784 462 784 c 0
EndSplineSet
EndChar

StartChar: whitebullet
Encoding: 9702 9702 590
Width: 922
Flags: W
HStem: 406 113<368.896 552.757> 754 113<368.685 552.223>
VStem: 230 113<545.062 727.979> 579 112<546.84 727.446>
LayerCount: 2
Fore
SplineSet
691 637 m 0
 691 499 580 406 460 406 c 256
 333 406 230 507 230 637 c 0
 230 765 332 867 460 867 c 0
 591 867 691 764 691 637 c 0
579 637 m 0
 579 705 524 754 460 754 c 256
 399 754 343 707 343 637 c 0
 343 566 399 519 460 519 c 256
 526 519 579 571 579 637 c 0
EndSplineSet
EndChar

StartChar: smileface
Encoding: 9786 9786 591
Width: 922
Flags: W
HStem: 124 126<298.564 622.839> 338 54<371.617 548.201> 608 114<255.697 366.296 555.643 665.674> 919 126<293.127 624.394>
VStem: -0 127<417.754 749.129> 254 114<609.589 720.417> 554 113<609.487 720.519> 795 126<419.528 752.828>
LayerCount: 2
Fore
SplineSet
921 584 m 0
 921 327 719 92 460 92 c 0
 202 92 0 329 0 584 c 0
 0 850 212 1045 460 1045 c 0
 719 1045 921 841 921 584 c 0
795 584 m 0
 795 771 649 951 460 951 c 0
 272 951 127 770 127 584 c 0
 127 390 282 218 460 218 c 0
 642 218 795 392 795 584 c 0
368 666 m 256
 368 634 343 608 310 608 c 256
 278 608 254 636 254 666 c 256
 254 694 277 722 310 722 c 256
 344 722 368 695 368 666 c 256
667 666 m 256
 667 634 644 608 612 608 c 256
 578 608 554 634 554 666 c 256
 554 696 577 722 612 722 c 256
 644 722 667 696 667 666 c 256
280 458 m 1
 319 480 l 1
 351 422 398 392 460 392 c 256
 523 392 570 422 602 480 c 1
 641 458 l 1
 600 378 539 338 460 338 c 0
 363 338 310 401 280 458 c 1
EndSplineSet
EndChar

StartChar: invsmileface
Encoding: 9787 9787 592
Width: 922
Flags: W
HStem: 124 171<330.15 591.942> 738 307<261.901 501.505 421.958 661.515>
VStem: -0 226<494.273 736.313> 343 236<622.894 736.048> 695 226<493.852 734.781>
LayerCount: 2
Fore
SplineSet
921 584 m 0
 921 327 719 92 460 92 c 0
 202 92 0 329 0 584 c 0
 0 850 212 1045 460 1045 c 0
 719 1045 921 841 921 584 c 0
343 680 m 256
 343 710 318 738 284 738 c 256
 250 738 226 709 226 680 c 256
 226 650 251 621 284 621 c 256
 317 621 343 648 343 680 c 256
695 680 m 256
 695 711 672 738 638 738 c 256
 603 738 579 711 579 680 c 256
 579 648 604 621 638 621 c 256
 671 621 695 648 695 680 c 256
248 436 m 1
 283 369 346 295 460 295 c 0
 575 295 637 368 673 436 c 1
 627 462 l 1
 589 393 534 358 460 358 c 256
 387 358 332 393 294 462 c 1
 248 436 l 1
EndSplineSet
Validated: 3073
EndChar

StartChar: compass
Encoding: 9788 9788 593
Width: 922
Flags: W
HStem: 448 46<0 162 760 922> 722 47<486 563.283>
VStem: 162 48<494 578.675> 436 50<10 173 769 932> 710 50<363.517 448 492 580.419>
DStem2: 125 839 95 802 0.707613 -0.7066<4.91579 197.993 796.168 991.33> 95 139 127 106 0.708621 0.705589<0 194.565 792.769 988.636>
LayerCount: 2
Fore
SplineSet
436 964 m 1
 486 964 l 1
 486 801 l 1
 555 801 606 770 654 733 c 1
 795 870 l 1
 828 836 l 1
 690 697 l 1
 734 639 760 549 760 492 c 1
 922 492 l 1
 922 448 l 1
 760 448 l 1
 753 388 730 298 691 248 c 1
 828 105 l 1
 793 73 l 1
 654 210 l 1
 598 168 556 149 486 141 c 1
 486 10 l 1
 436 10 l 1
 436 141 l 1
 373 150 318 173 269 208 c 1
 127 74 l 1
 95 107 l 1
 232 246 l 1
 192 297 169 385 162 448 c 1
 0 448 l 1
 0 494 l 1
 162 494 l 1
 162 558 191 646 231 695 c 1
 95 834 l 1
 125 871 l 1
 268 734 l 1
 325 773 382 795 436 801 c 1
 436 964 l 1
460 722 m 256
 316 722 210 607 210 471 c 0
 210 332 318 221 460 221 c 256
 604 221 710 335 710 471 c 0
 710 611 599 722 460 722 c 256
EndSplineSet
Validated: 3073
EndChar

StartChar: female
Encoding: 9792 9792 594
Width: 922
Flags: W
HStem: 343 69<175 426 499 747> 577 81<346.207 426 499 579.178> 1069 84<343.449 581.435>
VStem: 183 79<741.948 982.372> 426 73<80 343 412 577> 661 80<741.559 986.112>
LayerCount: 2
Fore
SplineSet
426 577 m 1
 287 597 183 747 183 894 c 0
 183 1069 317 1185 462 1185 c 0
 608 1185 741 1067 741 894 c 0
 741 736 628 594 499 577 c 1
 499 412 l 1
 747 412 l 1
 747 343 l 1
 499 343 l 1
 499 48 l 1
 426 48 l 1
 426 343 l 1
 175 343 l 1
 175 412 l 1
 426 412 l 1
 426 577 l 1
461 1069 m 0
 351 1069 262 979 262 864 c 256
 262 747 352 658 461 658 c 256
 568 658 661 744 661 864 c 256
 661 983 569 1069 461 1069 c 0
EndSplineSet
Validated: 3073
EndChar

StartChar: male
Encoding: 9794 9794 595
Width: 922
Flags: W
HStem: 250 75<211.388 439.888> 750 75<207.521 441.935>
VStem: 42 76<417.863 660.889> 531 75<414.96 660.222>
DStem2: 474 782 525 740 0.693164 0.72078<5.0786 360.117>
LayerCount: 2
Fore
SplineSet
474 814 m 1
 725 1043 l 1
 673 1101 516 1156 516 1161 c 1
 537 1185 l 9
 864 1185 l 0
 880 1170 l 0
 880 825 l 273
 857 804 l 1
 852 804 795 945 771 996 c 1
 525 772 l 1
 579 718 606 622 606 548 c 0
 606 378 478 218 323 218 c 256
 162 218 42 381 42 535 c 0
 42 694 164 857 325 857 c 0
 371 857 420 843 474 814 c 1
325 750 m 0
 209 750 118 657 118 538 c 256
 118 415 216 325 325 325 c 256
 431 325 531 408 531 538 c 0
 531 663 434 750 325 750 c 0
EndSplineSet
Validated: 3073
EndChar

StartChar: spade
Encoding: 9824 9824 596
Width: 922
Flags: W
HStem: 152 28<168 272.283 656.397 754>
VStem: 456 14<417.894 503>
LayerCount: 2
Fore
SplineSet
461 1079 m 1
 532 784 826 737 826 527 c 0
 826 428 751 359 662 359 c 0
 584 359 520 407 470 503 c 1
 470 244 613 148 754 148 c 1
 759 120 l 1
 162 120 l 1
 168 148 l 1
 399 148 456 334 456 503 c 1
 409 401 338 359 260 359 c 0
 170 359 95 432 95 524 c 0
 95 746 393 770 461 1079 c 1
EndSplineSet
Validated: 3073
EndChar

StartChar: club
Encoding: 9827 9827 597
Width: 922
Flags: W
HStem: 151 25<150 211.374 718.551 773> 355 416<78.7852 299.617 619.973 842.203>
VStem: 252 415<744.613 993.475> 453 15<445.978 533>
LayerCount: 2
Fore
SplineSet
779 119 m 1xd0
 145 119 l 1
 150 144 l 1
 170 148 453 204 453 498 c 0
 453 506 453 517 453 533 c 1xd0
 397 418 305 355 207 355 c 0
 101 355 0 434 0 564 c 0
 0 700 103 803 179 803 c 0
 210 803 251 790 302 764 c 1
 260 834 252 859 252 901 c 0
 252 1012 336 1071 459 1071 c 0
 579 1071 667 1013 667 903 c 0xe0
 667 858 650 812 615 764 c 1
 686 797 696 803 737 803 c 0
 835 803 922 687 922 567 c 0
 922 444 827 355 717 355 c 0
 561 355 483 508 468 533 c 1
 468 244 629 173 773 144 c 1
 779 119 l 1xd0
EndSplineSet
Validated: 3073
EndChar

StartChar: heart
Encoding: 9829 9829 598
Width: 922
Flags: W
LayerCount: 2
Fore
SplineSet
463 90 m 1
 381 393 79 647 79 848 c 0
 79 957 159 999 260 999 c 0
 341 999 418 986 463 856 c 1
 499 986 583 1000 661 1000 c 0
 767 1000 842 949 842 857 c 0
 842 624 542 393 463 90 c 1
EndSplineSet
Validated: 3073
EndChar

StartChar: diamond
Encoding: 9830 9830 599
Width: 922
Flags: W
LayerCount: 2
Fore
SplineSet
460 1068 m 1
 535 891 675 714 805 600 c 1
 696 516 544 282 460 98 c 1
 392 252 228 516 118 600 c 1
 249 714 363 864 460 1068 c 1
EndSplineSet
Validated: 3073
EndChar

StartChar: musicalnote
Encoding: 9834 9834 600
Width: 922
Flags: W
HStem: 135.78 236.52<235.114 404.073> 1026.22 20G<419 480>
VStem: 183 297<213.517 321.525> 419 61<357.72 767.58 964.41 1046.22> 626 67<401.088 670.848>
LayerCount: 2
Fore
SplineSet
419 358 m 1xd8
 419 1047 l 1
 480 1047 l 1
 480 997 l 1
 605 842 l 2
 651 778 693 656 693 553 c 0
 693 469 667 396 616 333 c 1
 578 333 l 1
 610 404 626 471 626 535 c 256
 626 674 543 790 480 800 c 1
 480 358 l 2xd8
 480 258 395 104 276 104 c 0
 218 104 183 132 183 184 c 0xe8
 183 265 253 373 346 373 c 0
 368 373 392 369 419 358 c 1xd8
EndSplineSet
Validated: 3073
EndChar

StartChar: musicalnotedbl
Encoding: 9835 9835 601
Width: 922
Flags: W
HStem: 71 235<87.9738 255.579> 147 235<593.354 761.757> 1025 20G<760.793 839>
VStem: 272 61<292 611 714 807> 779 60<368 732 835 928>
DStem2: 272 900 333 807 0.968822 0.247759<36.0566 498.13> 333 714 333 611 0.965113 0.261835<0 435.153>
LayerCount: 2
Fore
SplineSet
839 368 m 2xb8
 839 223 740 115 636 115 c 0
 558 115 543 163 543 195 c 0
 543 275 612 382 706 382 c 0x78
 733 382 757 376 779 368 c 1
 779 764 l 1
 333 611 l 1
 333 260 l 2
 333 115 234 39 129 39 c 0
 51 39 36 87 36 119 c 0
 36 198 105 306 200 306 c 0
 227 306 253 269 272 260 c 1
 272 932 l 1
 839 1045 l 1
 839 368 l 2xb8
333 714 m 1
 779 835 l 1
 779 928 l 1
 333 807 l 1
 333 714 l 1
EndSplineSet
Validated: 3073
EndChar

StartChar: arrowboth
Encoding: 8596 8596 602
Width: 922
VWidth: 1708
Flags: W
LayerCount: 2
Fore
SplineSet
371 992 m 29
 50 600 l 29
 371 208 l 29
0 -99 m 5
 0 1256 l 5
 922 1256 l 5
 922 -99 l 5
 0 -99 l 5
551 992 m 29
 872 600 l 29
 551 208 l 29
872 600 m 29
 50 600 l 29
EndSplineSet
EndChar

StartChar: arrowbothv
Encoding: 8597 8597 603
Width: 922
VWidth: 1708
Flags: W
LayerCount: 2
Fore
SplineSet
821 722 m 29
 461 1061 l 29
 101 722 l 29
0 55 m 5
 0 1145 l 5
 922 1145 l 5
 922 55 l 5
 0 55 l 5
821 510 m 29
 461 107 l 29
 101 510 l 29
461 107 m 29
 461 1061 l 29
EndSplineSet
EndChar

StartChar: updownarrowbar
Encoding: 8616 8616 604
Width: 922
VWidth: 1708
Flags: W
LayerCount: 2
Fore
SplineSet
50 26 m 25
 872 26 l 25
821 722 m 25
 461 1061 l 25
 101 722 l 25
0 -443 m 1
 0 1145 l 1
 922 1145 l 1
 922 -443 l 1
 0 -443 l 1
821 510 m 25
 461 107 l 25
 101 510 l 25
461 107 m 25
 461 1061 l 25
EndSplineSet
EndChar

StartChar: nsuperior
Encoding: 8319 8319 605
Width: 922
VWidth: 1947
Flags: W
LayerCount: 2
Fore
SplineSet
688 544 m 29
 688 1135 l 22
 688 1287 622 1349 469 1349 c 14
 453 1349 l 22
 319 1349 234 1140 234 1026 c 14
 234 972 l 29
234 1424 m 29
 234 544 l 29
EndSplineSet
EndChar

StartChar: radical
Encoding: 8730 8730 606
Width: 922
VWidth: 1708
Flags: W
LayerCount: 2
Back
SplineSet
0 -25 m 5
 0 1633 l 5
 922 1633 l 5
 922 -25 l 5
 0 -25 l 5
EndSplineSet
Fore
SplineSet
832 1755 m 25
 511 5 l 25
 254 980 l 25
 48 980 l 25
EndSplineSet
EndChar

StartChar: intersection
Encoding: 8745 8745 608
Width: 922
Flags: W
LayerCount: 2
Fore
SplineSet
182 0 m 29
 182 1063 l 22
 182 1215 297 1365 452 1365 c 14
 470 1365 l 22
 627 1365 740 1218 740 1063 c 14
 740 0 l 29
EndSplineSet
EndChar

StartChar: infinity
Encoding: 8734 8734 609
Width: 922
Flags: W
HStem: 392 451<167.881 384.281 539.948 754.362>
VStem: 96 365<470.688 763.476> 461 365<469.341 759.258>
LayerCount: 2
Fore
SplineSet
646 843 m 7
 775.5 843 826 720.176 826 618 c 7
 826 521.999 771.049 392 646 392 c 7
 520.496 392 461 511.995 461 618 c 7
 461 717 529.5 843 646 843 c 7
276 843 m 7
 157.491 843 96 718.679 96 618 c 7
 96 526.5 151.499 392 276 392 c 7
 402.016 392 461 511.971 461 618 c 7
 461 717 397.537 843 276 843 c 7
EndSplineSet
EndChar

StartChar: almostequal
Encoding: 8776 8776 610
Width: 922
VWidth: 1947
Flags: W
LayerCount: 2
Fore
SplineSet
139 788 m 21
 170 896 244 965 317 965 c 14
 332 965 l 22
 361.255 965 390.521 947.637 417 921.3 c 6
 510 828.8 l 6
 534.729 804.204 562.589 789 590 789 c 14
 605 789 l 22
 686 789 754 874 784 965 c 13
139 340 m 21
 170 448 244 517 317 517 c 14
 332 517 l 22
 361.255 517 390.521 499.637 417 473.3 c 6
 510 380.8 l 6
 534.729 356.204 562.589 341 590 341 c 14
 605 341 l 22
 686 341 754 426 784 517 c 13
EndSplineSet
EndChar

StartChar: equivalence
Encoding: 8801 8801 611
Width: 922
Flags: W
LayerCount: 2
Fore
SplineSet
50 920 m 25
 872 920 l 25
50 600 m 25
 872 600 l 25
50 278 m 25
 872 278 l 25
EndSplineSet
EndChar

StartChar: lessequal
Encoding: 8804 8804 612
Width: 922
VWidth: 1708
Flags: W
LayerCount: 2
Back
SplineSet
90 1612 m 5
 832 1612 l 5
 832 -150 l 5
 90 -150 l 5
 90 1612 l 5
EndSplineSet
Fore
SplineSet
-121 669 m 25
 902 132 l 25
902 1228 m 25
 142 859 l 25
 902 457 l 25
EndSplineSet
EndChar

StartChar: greaterequal
Encoding: 8805 8805 613
Width: 922
VWidth: 1708
Flags: W
LayerCount: 2
Back
SplineSet
90 1612 m 1
 832 1612 l 1
 832 -150 l 1
 90 -150 l 1
 90 1612 l 1
EndSplineSet
Fore
SplineSet
1043 669 m 25
 20 132 l 25
20 1228 m 25
 780 859 l 25
 20 457 l 25
EndSplineSet
EndChar

StartChar: revlogicalnot
Encoding: 8976 8976 614
Width: 922
VWidth: 1708
Flags: W
LayerCount: 2
Fore
SplineSet
872 600 m 29
 182 600 l 29
 182 214 l 29
EndSplineSet
EndChar

StartChar: integraltp
Encoding: 8992 8992 615
Width: 922
Flags: MW
LayerCount: 2
Fore
SplineSet
461 -615 m 25
 461 1414 l 18
 461 1489.5 511.5 1548 600 1548 c 2
 610 1548 l 2
 693 1548 740 1489.5 740 1414 c 9
 740 1340 l 25
EndSplineSet
EndChar

StartChar: integralbt
Encoding: 8993 8993 616
Width: 922
Flags: MW
LayerCount: 2
Fore
SplineSet
461 1775 m 29
 461 -324 l 18
 461 -399.5 410.5 -458 322 -458 c 2
 312 -458 l 2
 229 -458 182 -399.5 182 -324 c 9
 182 -218 l 25
EndSplineSet
EndChar
